<?xml version="1.0" encoding="UTF-8" standalone="no"?>
<svg
   xmlns:dc="http://purl.org/dc/elements/1.1/"
   xmlns:cc="http://creativecommons.org/ns#"
   xmlns:rdf="http://www.w3.org/1999/02/22-rdf-syntax-ns#"
   xmlns:svg="http://www.w3.org/2000/svg"
   xmlns="http://www.w3.org/2000/svg"
   xmlns:sodipodi="http://sodipodi.sourceforge.net/DTD/sodipodi-0.dtd"
   xmlns:inkscape="http://www.inkscape.org/namespaces/inkscape"
   sodipodi:docname="drawing.svg"
   inkscape:version="1.0 (4035a4fb49, 2020-05-01)"
   id="svg8"
   version="1.1"
   viewBox="0 0 210 297"
   height="297mm"
   width="210mm">
  <defs
     id="defs2" />
  <sodipodi:namedview
     inkscape:window-maximized="1"
     inkscape:window-y="-8"
     inkscape:window-x="-8"
     inkscape:window-height="1017"
     inkscape:window-width="1920"
     showgrid="false"
     inkscape:document-rotation="0"
     inkscape:current-layer="layer1"
     inkscape:document-units="mm"
     inkscape:cy="2675.2464"
     inkscape:cx="-286.12286"
     inkscape:zoom="0.7"
     inkscape:pageshadow="2"
     inkscape:pageopacity="0.0"
     borderopacity="1.0"
     bordercolor="#666666"
     pagecolor="#ffffff"
     id="base" />
  <metadata
     id="metadata5">
    <rdf:RDF>
      <cc:Work
         rdf:about="">
        <dc:format>image/svg+xml</dc:format>
        <dc:type
           rdf:resource="http://purl.org/dc/dcmitype/StillImage" />
        <dc:title></dc:title>
      </cc:Work>
    </rdf:RDF>
  </metadata>
  <g
     id="layer1"
     inkscape:groupmode="layer"
     inkscape:label="Layer 1">
    <text
       id="text835"
       y="43.467266"
       x="43.278275"
       style="font-style:normal;font-weight:normal;font-size:10.5833px;line-height:1.25;font-family:sans-serif;fill:#000000;fill-opacity:1;stroke:none;stroke-width:0.264583"
       xml:space="preserve"><tspan
         style="font-style:normal;font-variant:normal;font-weight:normal;font-stretch:normal;font-family:'Segoe Script';-inkscape-font-specification:'Segoe Script';stroke-width:0.264583"
         y="43.467266"
         x="43.278275"
         id="tspan833"
         sodipodi:role="line">ED(goal, holas, 4, 5)</tspan></text>
    <text
       xml:space="preserve"
       style="font-style:normal;font-weight:normal;font-size:10.5833px;line-height:1.25;font-family:sans-serif;fill:#000000;fill-opacity:1;stroke:none;stroke-width:0.264583"
       x="176.42056"
       y="44.166363"
       id="text835-6"><tspan
         sodipodi:role="line"
         id="tspan833-3"
         x="176.42056"
         y="44.166363"
         style="font-style:normal;font-variant:normal;font-weight:normal;font-stretch:normal;font-family:'Segoe Script';-inkscape-font-specification:'Segoe Script';stroke-width:0.264583">ED(4, 5)</tspan></text>
    <text
       xml:space="preserve"
       style="font-style:normal;font-weight:normal;font-size:10.5833px;line-height:1.25;font-family:sans-serif;fill:#000000;fill-opacity:1;stroke:none;stroke-width:0.264583"
       x="3.3074677"
       y="10.148505"
       id="text835-1"><tspan
         sodipodi:role="line"
         id="tspan833-0"
         x="3.3074677"
         y="10.148505"
         style="font-style:normal;font-variant:normal;font-weight:normal;font-stretch:normal;font-family:'Segoe Script';-inkscape-font-specification:'Segoe Script';stroke-width:0.264583">int ED(s1, s2, m, n)</tspan></text>
    <text
       id="text875"
       y="68.224701"
       x="58.019344"
       style="font-style:normal;font-weight:normal;font-size:10.5833px;line-height:1.25;font-family:sans-serif;fill:#000000;fill-opacity:1;stroke:none;stroke-width:0.264583"
       xml:space="preserve"><tspan
         style="font-style:normal;font-variant:normal;font-weight:normal;font-stretch:normal;font-family:'Segoe Script';-inkscape-font-specification:'Segoe Script';stroke-width:0.264583"
         y="68.224701"
         x="58.019344"
         id="tspan873"
         sodipodi:role="line">Since   l != s </tspan></text>
    <text
       id="text881"
       y="186.90924"
       x="72.004463"
       style="font-style:normal;font-weight:normal;font-size:10.5833px;line-height:1.25;font-family:sans-serif;fill:#000000;fill-opacity:1;stroke:none;stroke-width:0.264583"
       xml:space="preserve"><tspan
         style="font-style:normal;font-variant:normal;font-weight:normal;font-stretch:normal;font-family:'Segoe Script';-inkscape-font-specification:'Segoe Script';stroke-width:0.264583"
         y="186.90924"
         x="72.004463"
         id="tspan879"
         sodipodi:role="line">1 operation + min(ED(4,4), ED(3,5), ED(3,4))</tspan></text>
    <text
       id="text885"
       y="107.9122"
       x="62.933037"
       style="font-style:normal;font-weight:normal;font-size:10.5833px;line-height:1.25;font-family:sans-serif;fill:#000000;fill-opacity:1;stroke:none;stroke-width:0.264583"
       xml:space="preserve"><tspan
         style="stroke-width:0.264583"
         y="107.9122"
         x="62.933037"
         id="tspan883"
         sodipodi:role="line" /></text>
    <text
       xml:space="preserve"
       style="font-style:normal;font-weight:normal;font-size:10.5833px;line-height:1.25;font-family:sans-serif;fill:#000000;fill-opacity:1;stroke:none;stroke-width:0.264583"
       x="70.52478"
       y="147.20178"
       id="text875-0"><tspan
         sodipodi:role="line"
         id="tspan873-2"
         x="70.52478"
         y="147.20178"
         style="font-style:normal;font-variant:normal;font-weight:normal;font-stretch:normal;font-family:'Segoe Script';-inkscape-font-specification:'Segoe Script';stroke-width:0.264583">we need at least 1 change</tspan><tspan
         id="tspan905"
         sodipodi:role="line"
         x="70.52478"
         y="160.91071"
         style="font-style:normal;font-variant:normal;font-weight:normal;font-stretch:normal;font-family:'Segoe Script';-inkscape-font-specification:'Segoe Script';stroke-width:0.264583">and continue with the tree </tspan></text>
    <text
       xml:space="preserve"
       style="font-style:normal;font-weight:normal;font-size:10.5833px;line-height:1.25;font-family:sans-serif;fill:#000000;fill-opacity:1;stroke:none;stroke-width:0.264583"
       x="72.981628"
       y="86.15863"
       id="text875-5"><tspan
         sodipodi:role="line"
         id="tspan873-26"
         x="72.981628"
         y="86.15863"
         style="font-style:normal;font-variant:normal;font-weight:normal;font-stretch:normal;font-family:'Segoe Script';-inkscape-font-specification:'Segoe Script';stroke-width:0.264583">Insert is equivalent to 1 + ED(4,4)</tspan></text>
    <text
       id="text875-5-5"
       y="103.13803"
       x="71.996559"
       style="font-style:normal;font-weight:normal;font-size:10.5833px;line-height:1.25;font-family:sans-serif;fill:#000000;fill-opacity:1;stroke:none;stroke-width:0.264583"
       xml:space="preserve"><tspan
         style="font-style:normal;font-variant:normal;font-weight:normal;font-stretch:normal;font-family:'Segoe Script';-inkscape-font-specification:'Segoe Script';stroke-width:0.264583"
         y="103.13803"
         x="71.996559"
         id="tspan873-26-7"
         sodipodi:role="line">Remove is equivalent to 1 + ED(3,5)</tspan></text>
    <text
       xml:space="preserve"
       style="font-style:normal;font-weight:normal;font-size:10.5833px;line-height:1.25;font-family:sans-serif;fill:#000000;fill-opacity:1;stroke:none;stroke-width:0.264583"
       x="71.805466"
       y="120.14696"
       id="text875-5-5-3"><tspan
         sodipodi:role="line"
         id="tspan873-26-7-6"
         x="71.805466"
         y="120.14696"
         style="font-style:normal;font-variant:normal;font-weight:normal;font-stretch:normal;font-family:'Segoe Script';-inkscape-font-specification:'Segoe Script';stroke-width:0.264583">Replace is equivalent to 1 + ED(3,4)</tspan></text>
    <path
       d="m 85.3633,24.921033 c -0.07887,1.121471 -0.168801,2.247325 -0.38568,3.351506 -0.241919,0.912989 -0.28202,1.922264 -0.785739,2.74308 -0.05674,0.02758 -0.211277,0.130665 -0.170227,0.08275 0.09615,-0.112223 0.270793,-0.152932 0.341527,-0.282686 0.0263,-0.04826 -0.09515,-0.05545 -0.139489,-0.08793 -0.160515,-0.117578 -0.305432,-0.247951 -0.471352,-0.359391 -0.263777,-0.222927 -0.579832,-0.361029 -0.884264,-0.516549 -0.232601,-0.100891 -0.16273,-0.09487 -0.506198,0.346739 -0.01778,0.02286 0.265998,0.295077 0.278238,0.307467 0.267864,0.22015 0.560361,0.413618 0.886288,0.534829 0.462563,0.07813 0.899073,-0.187314 1.300922,-0.384813 0.268007,-0.152079 0.553315,-0.269329 0.835866,-0.390731 0,0 0.433935,-0.342868 0.433935,-0.342868 v 0 c -0.282469,0.120023 -0.569494,0.232701 -0.835908,0.386686 -0.391883,0.197112 -0.818809,0.458258 -1.270762,0.418462 -0.322157,-0.111845 -0.607804,-0.301125 -0.872617,-0.513757 -0.359804,-0.367686 -0.129239,-0.36844 -0.79787,-0.08475 -0.0043,0.0019 0.008,0.005 0.01193,0.0075 0.02244,0.0078 0.04485,0.01556 0.06728,0.02331 0.303633,0.153424 0.620479,0.287383 0.882769,0.509763 0.06466,0.04246 0.619117,0.469855 0.623139,0.469188 0.416377,-0.06912 0.528756,-0.165296 0.793273,-0.348234 0.473096,-0.839296 0.531625,-1.835079 0.765789,-2.754318 0.213903,-1.110832 0.302059,-2.241936 0.395753,-3.368299 0,0 -0.496612,0.253037 -0.496612,0.253037 z"
       id="path989"
       style="fill:#ff0000;stroke:none;stroke-width:0.542396" />
    <path
       d="m 125.42749,28.444642 c -0.10021,1.236644 -0.24581,2.469803 -0.36723,3.704751 -0.089,0.965833 -0.25695,1.914541 -0.57114,2.832434 0.33638,-0.07006 -0.43249,0.504409 -0.29191,0.411911 0.10559,-0.06947 0.25425,-0.116597 0.29723,-0.235461 0.0226,-0.06258 -0.12725,-0.04229 -0.18454,-0.07615 -0.1923,-0.113638 -0.29213,-0.234111 -0.45164,-0.391914 -0.22173,-0.250838 -0.36237,-0.554929 -0.53527,-0.838038 -0.0414,-0.06771 -0.0896,-0.131117 -0.12913,-0.19992 -0.0209,-0.03647 -0.0168,-0.138591 -0.0517,-0.115077 -0.13257,0.08941 -0.20973,0.241411 -0.3146,0.362116 0.48887,0.353939 0.90292,0.796386 1.37925,1.167427 0.19226,0.09551 0.27779,0.170566 0.50456,0.152561 0.42641,-0.03386 0.94892,-0.315582 1.32728,-0.507413 0.49972,-0.265554 0.17424,-0.08845 0.96688,-0.548542 0,0 -0.51838,0.199568 -0.51838,0.199568 v 0 c 0.32784,-0.184042 0.3239,-0.179766 -0.0172,0.0031 -0.37175,0.194974 -0.88808,0.474757 -1.30569,0.531061 -0.22401,0.0302 -0.29462,-0.03642 -0.48794,-0.126333 -0.48275,-0.370147 -0.90137,-0.81184 -1.38339,-1.181937 -0.2131,0.07507 -0.44508,0.109747 -0.63929,0.225198 -0.0382,0.02273 0.0365,0.08137 0.0595,0.11948 0.21351,0.354701 0.42383,0.715257 0.67358,1.0457 0.0741,0.075 0.53447,0.548264 0.66266,0.517393 0.51927,-0.12505 0.76074,-0.312137 0.93978,-0.749359 0.30498,-0.920612 0.46629,-1.870072 0.55019,-2.836068 0.11945,-1.241349 0.27091,-2.479434 0.38731,-3.720809 0,0 -0.49917,0.254344 -0.49917,0.254344 z"
       id="path993"
       style="fill:#ff0000;stroke:none;stroke-width:0.542396" />
    <text
       id="text835-6-2"
       y="245.06808"
       x="71.710358"
       style="font-style:normal;font-weight:normal;font-size:10.5833px;line-height:1.25;font-family:sans-serif;fill:#000000;fill-opacity:1;stroke:none;stroke-width:0.264583"
       xml:space="preserve"><tspan
         style="font-style:normal;font-variant:normal;font-weight:normal;font-stretch:normal;font-family:'Segoe Script';-inkscape-font-specification:'Segoe Script';stroke-width:0.264583"
         y="245.06808"
         x="71.710358"
         id="tspan833-3-4"
         sodipodi:role="line">ED(4, 5)</tspan></text>
    <text
       xml:space="preserve"
       style="font-style:normal;font-weight:normal;font-size:10.5833px;line-height:1.25;font-family:sans-serif;fill:#000000;fill-opacity:1;stroke:none;stroke-width:0.264583"
       x="-170.95036"
       y="306.67822"
       id="text835-6-2-2"><tspan
         sodipodi:role="line"
         id="tspan833-3-4-7"
         x="-170.95036"
         y="306.67822"
         style="font-style:normal;font-variant:normal;font-weight:normal;font-stretch:normal;font-family:'Segoe Script';-inkscape-font-specification:'Segoe Script';stroke-width:0.264583">ED(4, 4)</tspan></text>
    <text
       id="text835-6-2-2-6"
       y="304.41037"
       x="73.600235"
       style="font-style:normal;font-weight:normal;font-size:10.5833px;line-height:1.25;font-family:sans-serif;fill:#000000;fill-opacity:1;stroke:none;stroke-width:0.264583"
       xml:space="preserve"><tspan
         style="font-style:normal;font-variant:normal;font-weight:normal;font-stretch:normal;font-family:'Segoe Script';-inkscape-font-specification:'Segoe Script';stroke-width:0.264583"
         y="304.41037"
         x="73.600235"
         id="tspan833-3-4-7-5"
         sodipodi:role="line">ED(3, 5)</tspan></text>
    <text
       xml:space="preserve"
       style="font-style:normal;font-weight:normal;font-size:10.5833px;line-height:1.25;font-family:sans-serif;fill:#000000;fill-opacity:1;stroke:none;stroke-width:0.264583;"
       x="212.31749"
       y="303.27643"
       id="text835-6-2-2-6-3"><tspan
         sodipodi:role="line"
         id="tspan833-3-4-7-5-9"
         x="212.31749"
         y="303.27643"
         style="font-style:normal;font-variant:normal;font-weight:normal;font-stretch:normal;font-family:'Segoe Script';-inkscape-font-specification:'Segoe Script';stroke-width:0.264583;fill:#000000;">ED(3, 4)</tspan></text>
    <path
       d="m 94.751675,254.99358 c 0.21387,3.54574 0.282879,7.0981 0.342908,10.64912 0.05375,3.6821 0.05976,7.36465 0.05919,11.04706 0.06942,2.65504 -0.108429,5.30384 -0.235911,7.95388 -0.155374,1.88114 -0.356137,3.75666 -0.464259,5.64147 0,0 0.983973,-0.49445 0.983973,-0.49445 v 0 c 0.102991,-1.88201 0.301447,-3.75526 0.447503,-5.63409 0.124044,-2.64943 0.29387,-5.29762 0.220249,-7.95181 -0.01124,-3.67935 -0.0265,-7.35878 -0.08096,-11.03779 -0.06003,-3.56125 -0.147042,-7.12175 -0.276042,-10.68121 0,0 -0.996648,0.50782 -0.996648,0.50782 z"
       id="path1090"
       style="fill:#000000;stroke:none;stroke-width:0.542396" />
    <path
       d="m 111.4619,255.42183 c 3.03764,0.12674 6.02331,0.94323 8.94776,1.72904 3.45145,0.85112 6.80226,2.03911 10.18777,3.11135 7.50956,2.15235 15.07505,4.10577 22.63945,6.05508 9.61125,2.33395 19.25857,4.50797 28.85009,6.92304 6.97314,1.53707 13.81853,3.556 20.62141,5.70928 5.40509,1.68008 10.68415,3.72917 15.9817,5.7145 4.19447,1.49437 8.351,3.10261 12.59139,4.46405 2.5505,0.81293 5.1537,1.4455 7.7153,2.21901 0,0 0.90433,-0.61762 0.90433,-0.61762 v 0 c -2.57183,-0.76568 -5.18729,-1.38165 -7.74556,-2.19599 -4.24944,-1.35366 -8.42174,-2.93674 -12.62018,-4.43849 -5.30488,-1.98067 -10.58592,-4.04042 -16.00069,-5.70801 -6.81628,-2.14601 -13.67307,-4.16066 -20.65868,-5.6909 -9.60378,-2.39369 -19.2683,-4.52464 -28.87529,-6.90478 -7.53435,-1.96065 -15.07289,-3.92005 -22.54287,-6.11462 -3.38033,-1.0836 -6.72274,-2.29348 -10.17897,-3.12319 -2.92282,-0.78484 -5.8924,-1.59167 -8.92098,-1.79799 0,0 -0.89598,0.66624 -0.89598,0.66624 z"
       id="path1094"
       style="fill:#000000;stroke:none;stroke-width:0.542396" />
    <text
       xml:space="preserve"
       style="font-style:normal;font-weight:normal;font-size:10.5833px;line-height:1.25;font-family:sans-serif;fill:#000000;fill-opacity:1;stroke:none;stroke-width:0.264583"
       x="107.56645"
       y="276.46964"
       id="text875-6"><tspan
         sodipodi:role="line"
         id="tspan873-21"
         x="107.56645"
         y="276.46964"
         style="font-style:normal;font-variant:normal;font-weight:normal;font-stretch:normal;font-family:'Segoe Script';-inkscape-font-specification:'Segoe Script';stroke-width:0.264583">l != s </tspan></text>
    <text
       id="text835-6-2-2-0"
       y="366.02048"
       x="-277.16168"
       style="font-style:normal;font-weight:normal;font-size:10.5833px;line-height:1.25;font-family:sans-serif;fill:#000000;fill-opacity:1;stroke:none;stroke-width:0.264583"
       xml:space="preserve"><tspan
         style="font-style:normal;font-variant:normal;font-weight:normal;font-stretch:normal;font-family:'Segoe Script';-inkscape-font-specification:'Segoe Script';stroke-width:0.264583"
         y="366.02048"
         x="-277.16168"
         id="tspan833-3-4-7-8"
         sodipodi:role="line">ED(4, 3)</tspan></text>
    <text
       id="text835-6-2-2-5"
       y="363.75262"
       x="-172.84024"
       style="font-style:normal;font-weight:normal;font-size:10.5833px;line-height:1.25;font-family:sans-serif;fill:#000000;fill-opacity:1;stroke:none;stroke-width:0.264583"
       xml:space="preserve"><tspan
         style="font-style:normal;font-variant:normal;font-weight:normal;font-stretch:normal;font-family:'Segoe Script';-inkscape-font-specification:'Segoe Script';stroke-width:0.264583"
         y="363.75262"
         x="-172.84024"
         id="tspan833-3-4-7-54"
         sodipodi:role="line">ED(3, 4)</tspan></text>
    <text
       id="text835-6-2-2-1"
       y="363.37463"
       x="-65.117027"
       style="font-style:normal;font-weight:normal;font-size:10.5833px;line-height:1.25;font-family:sans-serif;fill:#000000;fill-opacity:1;stroke:none;stroke-width:0.264583"
       xml:space="preserve"><tspan
         style="font-style:normal;font-variant:normal;font-weight:normal;font-stretch:normal;font-family:'Segoe Script';-inkscape-font-specification:'Segoe Script';stroke-width:0.264583"
         y="363.37463"
         x="-65.117027"
         id="tspan833-3-4-7-4"
         sodipodi:role="line">ED(3, 3)</tspan></text>
    <path
       d="m 81.835666,253.29667 c -7.131656,0.3119 -14.235467,1.07893 -21.340722,1.7419 -12.710573,1.36566 -25.365816,3.20474 -38.043047,4.84625 -9.140587,1.13826 -18.0948001,3.33387 -27.0584227,5.39172 -10.0743793,2.37188 -20.3249943,3.86069 -30.5671003,5.28672 -8.726829,1.24687 -17.465646,2.39395 -26.160777,3.85045 -6.538831,1.1769 -13.10363,2.20422 -19.633351,3.43083 -4.937363,1.12813 -9.85068,2.3527 -14.785472,3.49305 -5.286744,1.27397 -10.588414,2.47497 -15.910354,3.59315 -4.50316,0.82965 -8.90764,2.08754 -13.35627,3.15323 -2.95403,0.75914 -5.93368,1.40417 -8.90121,2.10468 -2.16806,0.47217 -4.32986,0.96718 -6.4807,1.51246 0,0 -0.87324,0.66834 -0.87324,0.66834 v 0 c 2.15792,-0.55232 4.32521,-1.06172 6.5027,-1.53157 2.97243,-0.70548 5.96013,-1.34218 8.91676,-2.11616 4.45808,-1.07133 8.87052,-2.34 13.38296,-3.17717 5.31783,-1.12133 10.62006,-2.30712 15.902596,-3.58471 4.936903,-1.14168 9.854282,-2.35863 14.790536,-3.5021 6.545681,-1.2446 13.129035,-2.27717 19.684056,-3.47152 8.699174,-1.46958 17.445349,-2.59877 26.175459,-3.86472 10.23901,-1.44357 20.491539,-2.926 30.5691916,-5.27814 8.9735291,-2.06484 17.9426154,-4.23778 27.0865794,-5.42391 12.666636,-1.67728 25.31737,-3.51076 38.026779,-4.83845 7.049193,-0.64366 14.099767,-1.39838 21.177432,-1.63363 0,0 0.895617,-0.6507 0.895617,-0.6507 z"
       id="path1148"
       style="fill:#000000;stroke:none;stroke-width:0.542396" />
    <path
       d="m -150.17689,317.35966 c 0.22566,2.60628 0.27067,5.22301 0.38668,7.83532 0.0858,2.68975 0.29115,5.37964 0.24421,8.07241 -0.0202,1.16179 -0.1016,2.32341 -0.17112,3.48282 -0.1567,3.18307 -0.5093,6.35018 -0.79533,9.52296 -0.24147,2.20781 -0.54211,4.40838 -0.71111,6.62345 0,0 0.98563,-0.49306 0.98563,-0.49306 v 0 c 0.15843,-2.20823 0.44455,-4.40324 0.67679,-6.60442 0.28369,-3.17394 0.65399,-6.34047 0.79354,-9.52582 0.0655,-1.15805 0.14293,-2.32436 0.15978,-3.48448 0.0391,-2.69335 -0.17207,-5.38314 -0.24974,-8.07382 -0.0954,-2.62157 -0.1452,-5.24525 -0.32269,-7.86317 0,0 -0.99664,0.50781 -0.99664,0.50781 z"
       id="path1150"
       style="fill:#000000;stroke:none;stroke-width:0.542396" />
    <path
       d="m -164.67041,314.98095 c -3.67035,1.2509 -7.27259,2.6883 -10.90929,4.03127 -6.93711,2.73683 -14.03321,5.01491 -21.16949,7.16492 -6.86382,2.07306 -13.7838,3.95309 -20.54835,6.33788 -5.04486,1.82824 -9.94233,4.02016 -14.74699,6.40117 -3.65751,1.88854 -7.39489,3.61172 -11.19207,5.19901 -2.70137,1.02994 -5.28442,2.32476 -7.62791,4.02333 -1.06464,0.83929 -2.0036,1.81843 -2.98728,2.74717 0,0 1.0137,-0.41669 1.0137,-0.41669 v 0 c 0.97631,-0.92882 1.9153,-1.90119 2.98222,-2.72934 0.31433,-0.22505 0.63553,-0.44082 0.94299,-0.67519 0.0217,-0.0164 0.0142,-0.0588 0.0378,-0.0724 1.52927,-0.88193 3.17603,-1.55159 4.80512,-2.21948 3.80908,-1.58978 7.55612,-3.32118 11.2239,-5.21563 4.80686,-2.38799 9.70711,-4.5856 14.75417,-6.42249 6.77146,-2.40131 13.6988,-4.29879 20.57686,-6.36593 7.12317,-2.14188 14.20498,-4.41444 21.13418,-7.12986 3.60688,-1.32697 7.17955,-2.74836 10.82302,-3.97447 0,0 0.88739,-0.68323 0.88739,-0.68323 z"
       id="path1152"
       style="fill:#000000;stroke:none;stroke-width:0.542396" />
    <path
       d="m -135.4568,315.60016 c 2.85168,0.37906 5.59451,1.42075 8.32076,2.30139 6.17424,2.13649 12.35626,4.29303 18.71373,5.83309 1.86799,0.45249 3.75344,0.82957 5.63016,1.24436 1.97671,0.4024 3.954227,0.80092 5.93014,1.20724 4.010147,0.82463 6.850433,1.39335 10.791616,2.34468 4.143177,1.00008 8.223697,2.20271 12.305067,3.42467 6.787806,1.96879 13.328139,4.47579 19.753289,7.40259 3.604291,1.69338 7.251432,3.31472 10.724017,5.27039 1.755921,0.89898 3.063264,2.11079 4.236474,3.67173 0.143195,0.1891 0.286388,0.37822 0.429583,0.56732 0,0 0.9487,-0.56401 0.9487,-0.56401 v 0 c -0.144441,-0.18815 -0.288882,-0.37629 -0.433326,-0.56441 -1.210472,-1.59996 -2.469259,-2.7785 -4.279421,-3.69808 -3.493175,-1.94519 -7.163867,-3.54849 -10.781766,-5.24309 -6.43319,-2.89767 -13.017944,-5.41989 -19.800072,-7.38725 -2.978618,-0.88596 -4.82469,-1.45835 -7.852204,-2.26131 -7.012148,-1.85981 -14.139028,-3.21591 -21.240977,-4.67744 -1.86383,-0.42209 -3.73598,-0.80902 -5.5915,-1.26627 -6.33355,-1.56072 -12.49695,-3.7098 -18.64244,-5.87531 -2.69954,-0.90559 -5.41862,-1.95937 -8.2462,-2.3759 0,0 -0.91563,0.64561 -0.91563,0.64561 z"
       id="path1154"
       style="fill:#000000;stroke:none;stroke-width:0.542396" />
    <text
       id="text875-6-7"
       y="338.45773"
       x="-140.61855"
       style="font-style:normal;font-weight:normal;font-size:10.5833px;line-height:1.25;font-family:sans-serif;fill:#000000;fill-opacity:1;stroke:none;stroke-width:0.264583"
       xml:space="preserve"><tspan
         style="font-style:normal;font-variant:normal;font-weight:normal;font-stretch:normal;font-family:'Segoe Script';-inkscape-font-specification:'Segoe Script';stroke-width:0.264583"
         y="338.45773"
         x="-140.61855"
         id="tspan873-21-0"
         sodipodi:role="line">l != a </tspan></text>
    <text
       xml:space="preserve"
       style="font-style:normal;font-weight:normal;font-size:10.5833px;line-height:1.25;font-family:sans-serif;fill:#000000;fill-opacity:1;stroke:none;stroke-width:0.264583"
       x="-278.67358"
       y="421.58298"
       id="text835-6-2-2-0-9"><tspan
         sodipodi:role="line"
         id="tspan833-3-4-7-8-2"
         x="-278.67358"
         y="421.58298"
         style="font-style:normal;font-variant:normal;font-weight:normal;font-stretch:normal;font-family:'Segoe Script';-inkscape-font-specification:'Segoe Script';stroke-width:0.264583">ED(3, 2)</tspan></text>
    <path
       d="m -258.07516,377.60735 c -1.00979,5.18668 -1.20292,10.48388 -1.42124,15.74967 -0.23765,4.769 -0.19108,9.54079 -0.0545,14.3112 0.0283,0.40984 0.0567,0.81968 0.085,1.22952 0,0 0.96024,-0.49816 0.96024,-0.49816 v 0 c -0.0316,-0.40653 -0.0631,-0.81306 -0.0947,-1.21962 -0.17656,-4.75559 -0.24255,-9.51418 -0.009,-14.27004 0.22536,-5.27857 0.42941,-10.59391 1.51962,-15.78022 0,0 -0.98505,0.47765 -0.98505,0.47765 z"
       id="path1192"
       style="fill:#000000;stroke:none;stroke-width:0.542396" />
    <text
       xml:space="preserve"
       style="font-style:normal;font-weight:normal;font-size:10.5833px;line-height:1.25;font-family:sans-serif;fill:#000000;fill-opacity:1;stroke:none;stroke-width:0.264583"
       x="-305.52762"
       y="395.5004"
       id="text875-6-7-9"><tspan
         sodipodi:role="line"
         id="tspan873-21-0-2"
         x="-305.52762"
         y="395.5004"
         style="font-style:normal;font-variant:normal;font-weight:normal;font-stretch:normal;font-family:'Segoe Script';-inkscape-font-specification:'Segoe Script';stroke-width:0.264583">l = l </tspan></text>
    <text
       xml:space="preserve"
       style="font-style:normal;font-weight:normal;font-size:10.5833px;line-height:1.25;font-family:sans-serif;fill:#000000;fill-opacity:1;stroke:none;stroke-width:0.264583"
       x="-308.17346"
       y="438.96765"
       id="text875-6-7-8"><tspan
         sodipodi:role="line"
         id="tspan873-21-0-3"
         x="-308.17346"
         y="438.96765"
         style="font-style:normal;font-variant:normal;font-weight:normal;font-stretch:normal;font-family:'Segoe Script';-inkscape-font-specification:'Segoe Script';stroke-width:0.264583">a != o </tspan></text>
    <text
       xml:space="preserve"
       style="font-style:normal;font-weight:normal;font-size:10.5833px;line-height:1.25;font-family:sans-serif;fill:#000000;fill-opacity:1;stroke:none;stroke-width:0.264583"
       x="-175.33696"
       y="419.31512"
       id="text835-6-2-2-5-8"><tspan
         sodipodi:role="line"
         id="tspan833-3-4-7-54-6"
         x="-175.33696"
         y="419.31512"
         style="font-style:normal;font-variant:normal;font-weight:normal;font-stretch:normal;font-family:'Segoe Script';-inkscape-font-specification:'Segoe Script';stroke-width:0.264583">ED(2, 3)</tspan></text>
    <path
       d="m -152.06592,373.34491 c -0.0153,4.61198 0.35311,9.21285 0.6226,13.81403 0.25773,4.44976 0.42456,8.90421 0.50195,13.36064 0.16018,1.52521 -0.21135,3.03517 -0.2107,4.55218 0.035,0.63048 0.0137,0.31972 0.0631,0.93229 0,0 0.9891,-0.51401 0.9891,-0.51401 v 0 c -0.0486,-0.60738 -0.0282,-0.29972 -0.0606,-0.92303 0.0122,-1.51132 0.33655,-3.01786 0.17289,-4.53596 -0.11309,-4.44693 -0.30385,-8.89135 -0.56591,-13.33209 -0.27473,-4.61521 -0.63587,-9.23414 -0.51742,-13.86099 0,0 -0.99494,0.50694 -0.99494,0.50694 z"
       id="path1292"
       style="fill:#000000;stroke:none;stroke-width:0.542396" />
    <text
       id="text875-6-7-9-5"
       y="390.20874"
       x="-184.13969"
       style="font-style:normal;font-weight:normal;font-size:10.5833px;line-height:1.25;font-family:sans-serif;fill:#000000;fill-opacity:1;stroke:none;stroke-width:0.264583"
       xml:space="preserve"><tspan
         style="font-style:normal;font-variant:normal;font-weight:normal;font-stretch:normal;font-family:'Segoe Script';-inkscape-font-specification:'Segoe Script';stroke-width:0.264583"
         y="390.20874"
         x="-184.13969"
         id="tspan873-21-0-2-3"
         sodipodi:role="line">a = a </tspan></text>
    <text
       xml:space="preserve"
       style="font-style:normal;font-weight:normal;font-size:10.5833px;line-height:1.25;font-family:sans-serif;fill:#000000;fill-opacity:1;stroke:none;stroke-width:0.264583"
       x="-88.569298"
       y="383.78314"
       id="text875-6-7-0"><tspan
         sodipodi:role="line"
         id="tspan873-21-0-7"
         x="-88.569298"
         y="383.78314"
         style="font-style:normal;font-variant:normal;font-weight:normal;font-stretch:normal;font-family:'Segoe Script';-inkscape-font-specification:'Segoe Script';stroke-width:0.264583">a != l </tspan></text>
    <text
       id="text875-6-7-8-8"
       y="438.89789"
       x="-196.14449"
       style="font-style:normal;font-weight:normal;font-size:10.5833px;line-height:1.25;font-family:sans-serif;fill:#000000;fill-opacity:1;stroke:none;stroke-width:0.264583"
       xml:space="preserve"><tspan
         style="font-style:normal;font-variant:normal;font-weight:normal;font-stretch:normal;font-family:'Segoe Script';-inkscape-font-specification:'Segoe Script';stroke-width:0.264583"
         y="438.89789"
         x="-196.14449"
         id="tspan873-21-0-3-0"
         sodipodi:role="line">o != l </tspan></text>
    <text
       id="text875-6-1"
       y="327.87439"
       x="39.676102"
       style="font-style:normal;font-weight:normal;font-size:10.5833px;line-height:1.25;font-family:sans-serif;fill:#000000;fill-opacity:1;stroke:none;stroke-width:0.264583"
       xml:space="preserve"><tspan
         style="font-style:normal;font-variant:normal;font-weight:normal;font-stretch:normal;font-family:'Segoe Script';-inkscape-font-specification:'Segoe Script';stroke-width:0.264583"
         y="327.87439"
         x="39.676102"
         id="tspan873-21-2"
         sodipodi:role="line">a != s </tspan></text>
    <text
       id="text835-6-2-2-5-8-9"
       y="357.11835"
       x="218.80124"
       style="font-style:normal;font-weight:normal;font-size:10.5833px;line-height:1.25;font-family:sans-serif;fill:#000000;fill-opacity:1;stroke:none;stroke-width:0.264583"
       xml:space="preserve"><tspan
         style="font-style:normal;font-variant:normal;font-weight:normal;font-stretch:normal;font-family:'Segoe Script';-inkscape-font-specification:'Segoe Script';stroke-width:0.264583"
         y="357.11835"
         x="218.80124"
         id="tspan833-3-4-7-54-6-5"
         sodipodi:role="line">ED(2, 3)</tspan></text>
    <path
       style="fill:#000000;stroke:none;stroke-width:0.542396"
       id="path1292-8"
       d="m 242.07227,311.14814 c -0.0153,4.61198 0.35312,9.21285 0.62261,13.81403 0.25772,4.44976 0.42455,8.90421 0.50195,13.36064 0.16018,1.52521 -0.21135,3.03517 -0.21071,4.55218 0.035,0.63048 0.0137,0.31972 0.0631,0.93228 0,0 0.9891,-0.514 0.9891,-0.514 v 0 c -0.0486,-0.60738 -0.0282,-0.29972 -0.0606,-0.92303 0.0122,-1.51132 0.33655,-3.01786 0.1729,-4.53596 -0.11309,-4.44693 -0.30385,-8.89135 -0.56592,-13.33209 -0.27473,-4.61521 -0.63586,-9.23414 -0.51741,-13.86099 0,0 -0.99494,0.50694 -0.99494,0.50694 z" />
    <text
       xml:space="preserve"
       style="font-style:normal;font-weight:normal;font-size:10.5833px;line-height:1.25;font-family:sans-serif;fill:#000000;fill-opacity:1;stroke:none;stroke-width:0.264583"
       x="209.9985"
       y="328.01196"
       id="text875-6-7-9-5-4"><tspan
         sodipodi:role="line"
         id="tspan873-21-0-2-3-9"
         x="209.9985"
         y="328.01196"
         style="font-style:normal;font-variant:normal;font-weight:normal;font-stretch:normal;font-family:'Segoe Script';-inkscape-font-specification:'Segoe Script';stroke-width:0.264583">a = a </tspan></text>
    <text
       xml:space="preserve"
       style="font-style:normal;font-weight:normal;font-size:10.5833px;line-height:1.25;font-family:sans-serif;fill:#000000;fill-opacity:1;stroke:none;stroke-width:0.264583"
       x="189.67824"
       y="380.85886"
       id="text875-6-7-8-8-2"><tspan
         sodipodi:role="line"
         id="tspan873-21-0-3-0-5"
         x="189.67824"
         y="380.85886"
         style="font-style:normal;font-variant:normal;font-weight:normal;font-stretch:normal;font-family:'Segoe Script';-inkscape-font-specification:'Segoe Script';stroke-width:0.264583">o != l </tspan></text>
    <text
       xml:space="preserve"
       style="font-style:normal;font-weight:normal;font-size:10.5833px;line-height:1.25;font-family:sans-serif;fill:#000000;fill-opacity:1;stroke:none;stroke-width:0.264583"
       x="158.26691"
       y="414.40143"
       id="text835-6-2-2-5-8-9-9"><tspan
         sodipodi:role="line"
         id="tspan833-3-4-7-54-6-5-6"
         x="158.26691"
         y="414.40143"
         style="font-style:normal;font-variant:normal;font-weight:normal;font-stretch:normal;font-family:'Segoe Script';-inkscape-font-specification:'Segoe Script';stroke-width:0.264583">ED(2, 2)</tspan></text>
    <text
       xml:space="preserve"
       style="font-style:normal;font-weight:normal;font-size:10.5833px;line-height:1.25;font-family:sans-serif;fill:#000000;fill-opacity:1;stroke:none;stroke-width:0.264583"
       x="227.81453"
       y="413.64545"
       id="text835-6-2-2-5-8-9-4"><tspan
         sodipodi:role="line"
         id="tspan833-3-4-7-54-6-5-8"
         x="227.81453"
         y="413.64545"
         style="font-style:normal;font-variant:normal;font-weight:normal;font-stretch:normal;font-family:'Segoe Script';-inkscape-font-specification:'Segoe Script';stroke-width:0.264583">ED(1, 3)</tspan></text>
    <text
       xml:space="preserve"
       style="font-style:normal;font-weight:normal;font-size:10.5833px;line-height:1.25;font-family:sans-serif;fill:#000000;fill-opacity:1;stroke:none;stroke-width:0.264583"
       x="297.74011"
       y="413.26749"
       id="text835-6-2-2-5-8-9-1"><tspan
         sodipodi:role="line"
         id="tspan833-3-4-7-54-6-5-2"
         x="297.74011"
         y="413.26749"
         style="font-style:normal;font-variant:normal;font-weight:normal;font-stretch:normal;font-family:'Segoe Script';-inkscape-font-specification:'Segoe Script';stroke-width:0.264583">ED(1, 2)</tspan></text>
    <text
       xml:space="preserve"
       style="font-style:normal;font-weight:normal;font-size:10.5833px;line-height:1.25;font-family:sans-serif;fill:#000000;fill-opacity:1;stroke:none;stroke-width:0.264583"
       x="133.86784"
       y="444.18015"
       id="text875-6-7-9-5-2"><tspan
         sodipodi:role="line"
         id="tspan873-21-0-2-3-4"
         x="133.86784"
         y="444.18015"
         style="font-style:normal;font-variant:normal;font-weight:normal;font-stretch:normal;font-family:'Segoe Script';-inkscape-font-specification:'Segoe Script';stroke-width:0.264583">o = o </tspan></text>
    <text
       id="text835-6-2-2-5-8-9-9-2"
       y="468.45203"
       x="157.13298"
       style="font-style:normal;font-weight:normal;font-size:10.5833px;line-height:1.25;font-family:sans-serif;fill:#000000;fill-opacity:1;stroke:none;stroke-width:0.264583"
       xml:space="preserve"><tspan
         style="font-style:normal;font-variant:normal;font-weight:normal;font-stretch:normal;font-family:'Segoe Script';-inkscape-font-specification:'Segoe Script';stroke-width:0.264583"
         y="468.45203"
         x="157.13298"
         id="tspan833-3-4-7-54-6-5-6-8"
         sodipodi:role="line">ED(1, 1)</tspan></text>
    <path
       d="m 181.40562,424.80409 c 0.579,3.64911 0.95585,7.32661 1.28728,11.00529 0.36472,3.96923 0.43976,7.95727 0.24121,11.93684 -0.0277,2.48211 -0.54271,4.88156 -1.16297,7.27006 -0.16455,0.78531 -0.4314,1.5417 -0.68779,2.29989 0,0 1.00135,-0.47027 1.00135,-0.47027 v 0 c 0.2491,-0.75816 0.50311,-1.51603 0.6673,-2.29864 0.61125,-2.39287 1.12326,-4.79568 1.13465,-7.28065 0.18315,-3.9796 0.0827,-7.96555 -0.27914,-11.93371 -0.33695,-3.69171 -0.70353,-7.38267 -1.21918,-11.05419 0,0 -0.98271,0.52538 -0.98271,0.52538 z"
       id="path1489"
       style="fill:#000000;stroke:none;stroke-width:0.542396" />
    <path
       d="m 171.09955,480.12902 c -3.16427,2.39771 -6.43976,4.64318 -9.60855,7.03477 -3.89289,3.00834 -7.58267,6.26539 -11.02528,9.7781 -2.19038,2.33992 -4.43068,4.63968 -6.84047,6.75471 -2.73193,2.28692 -5.60886,4.39819 -8.53191,6.43297 -2.14076,1.56321 -4.32782,3.05882 -6.47812,4.6091 -1.45043,0.96755 -2.96736,1.82652 -4.46874,2.71047 0,0 1.02194,-0.39328 1.02194,-0.39328 v 0 c 1.50008,-0.88249 3.01326,-1.74464 4.45811,-2.71724 2.14149,-1.54835 4.32332,-3.03731 6.45554,-4.59833 2.92015,-2.04256 5.80076,-4.15232 8.53054,-6.44528 2.40039,-2.116 4.63627,-4.40928 6.8142,-6.75232 3.43888,-3.50565 7.12358,-6.75828 11.0143,-9.75693 3.19781,-2.40242 6.49221,-4.67194 9.69426,-7.06867 0,0 -1.03582,0.41193 -1.03582,0.41193 z"
       id="path1491"
       style="fill:#000000;stroke:none;stroke-width:0.542396" />
    <path
       d="m 174.12582,482.86844 c 0.1679,2.24406 0.4432,4.47802 0.67058,6.71647 0.31935,3.24012 0.40334,6.49672 0.46008,9.75003 0.0116,2.06687 0.0244,4.14949 -0.18479,6.20924 -0.0821,0.80878 -0.31982,2.24624 -0.44732,3.05499 -0.40625,2.33153 -0.97102,4.62608 -1.56519,6.91478 -0.19842,0.93938 -0.47169,1.85904 -0.65461,2.80183 0,0 1.00247,-0.48673 1.00247,-0.48673 v 0 c 0.18366,-0.9375 0.44891,-1.85478 0.64446,-2.78974 0.57858,-2.28851 1.12932,-4.58332 1.53309,-6.91073 0.13172,-0.84672 0.35591,-2.21517 0.44138,-3.06245 0.20808,-2.06271 0.19244,-4.1471 0.17962,-6.21686 -0.0567,-3.25614 -0.15116,-6.51536 -0.46244,-9.7587 -0.22109,-2.24203 -0.49483,-4.48062 -0.61897,-6.73082 0,0 -0.99836,0.50869 -0.99836,0.50869 z"
       id="path1493"
       style="fill:#000000;stroke:none;stroke-width:0.542396" />
    <path
       d="m 181.59973,482.52408 c 2.00665,2.62943 3.92473,5.3258 5.90126,7.97886 2.0234,2.67975 3.92194,5.44407 5.67271,8.30874 1.87355,2.78183 3.69484,5.60263 5.65624,8.32371 1.71341,2.23774 3.32644,4.54774 4.9576,6.84514 1.00567,1.2646 1.67066,2.81607 2.8642,3.92443 0.0702,0.0463 0.14041,0.0926 0.21062,0.13893 0,0 0.94391,-0.60941 0.94391,-0.60941 v 0 c -0.0688,-0.039 -0.13767,-0.078 -0.2065,-0.11697 -1.21651,-1.07284 -1.86983,-2.63864 -2.87944,-3.88731 -1.63448,-2.29616 -3.26341,-4.59587 -4.97568,-6.83533 -1.96078,-2.71751 -3.7863,-5.53294 -5.64203,-8.32265 -1.7553,-2.86684 -3.67861,-5.61856 -5.70266,-8.30239 -1.97676,-2.65364 -3.89446,-5.34882 -5.84405,-8.02166 0,0 -0.95618,0.57591 -0.95618,0.57591 z"
       id="path1495"
       style="fill:#000000;stroke:none;stroke-width:0.542396" />
    <path
       d="m 248.44214,423.12754 c -0.96305,2.62093 -2.09101,5.16934 -3.3376,7.6664 -1.74341,3.48912 -3.75289,6.83321 -5.86328,10.11005 -1.77549,2.7237 -3.45344,5.51042 -5.31635,8.17581 -1.67518,2.2638 -3.26359,4.58954 -4.9052,6.87766 -0.1915,0.28162 -0.383,0.56324 -0.57449,0.84487 0,0 0.99959,-0.4363 0.99959,-0.4363 v 0 c 0.19009,-0.28004 0.38019,-0.56007 0.57028,-0.84011 1.63597,-2.28719 3.21362,-4.61576 4.89107,-6.87305 1.85384,-2.66811 3.53203,-5.45111 5.30301,-8.1743 2.10548,-3.28084 4.1066,-6.6307 5.85388,-10.11831 1.25641,-2.51235 2.38316,-5.0797 3.39615,-7.70008 0,0 -1.01706,0.46736 -1.01706,0.46736 z"
       id="path1497"
       style="fill:#000000;stroke:none;stroke-width:0.542396" />
    <path
       d="m 251.33082,425.47285 c 0.67,2.89817 0.74446,5.89386 0.95838,8.84995 0.221,3.17381 0.43377,6.35225 0.39527,9.53497 -0.0641,2.2093 -0.20171,4.41518 -0.25771,6.62472 -0.0396,1.48127 -0.0409,2.96309 -0.0512,4.44471 0,0 0.98071,-0.49925 0.98071,-0.49925 v 0 c 5.3e-4,-1.47962 0.0121,-2.95933 0.0448,-4.43865 0.0611,-2.20667 0.17969,-4.41108 0.24025,-6.61781 0.0289,-3.1832 -0.18846,-6.36082 -0.41506,-9.53468 -0.21381,-2.97058 -0.29493,-5.97323 -0.91196,-8.89579 0,0 -0.98349,0.53183 -0.98349,0.53183 z"
       id="path1499"
       style="fill:#000000;stroke:none;stroke-width:0.542396" />
    <path
       d="m 253.69479,423.72211 c 1.11133,3.13092 2.42146,6.18905 3.71592,9.24779 1.55429,3.65985 3.5132,7.1228 5.4047,10.6135 1.2239,2.52502 2.63615,4.94197 4.13983,7.30784 1.00364,1.7512 2.28269,3.2996 3.67816,4.7475 0.1551,0.12393 0.31022,0.24784 0.46535,0.37177 0,0 0.93816,-0.59111 0.93816,-0.59111 v 0 c -0.15558,-0.11769 -0.31113,-0.23537 -0.4667,-0.35306 -1.40682,-1.42912 -2.6656,-2.9841 -3.67663,-4.72247 -1.5127,-2.35725 -2.92954,-4.76824 -4.1618,-7.28644 -1.90166,-3.48162 -3.85417,-6.94311 -5.40731,-10.60024 -1.29701,-3.05826 -2.6046,-6.12137 -3.65757,-9.27391 0,0 -0.97211,0.53883 -0.97211,0.53883 z"
       id="path1501"
       style="fill:#000000;stroke:none;stroke-width:0.542396" />
    <path
       d="m 322.67302,421.01468 c -0.10826,3.47078 -0.80838,6.88308 -1.59231,10.25377 -1.09064,4.54773 -2.7409,8.92307 -4.59534,13.20659 -1.46558,3.28018 -3.67744,6.13426 -6.06933,8.7852 -0.94125,0.92983 -0.48408,0.52626 -1.35194,1.23259 0,0 1.02177,-0.41209 1.02177,-0.41209 v 0 c 0.8455,-0.71358 0.39878,-0.30766 1.32191,-1.23759 2.37453,-2.66043 4.57166,-5.5195 6.0217,-8.80168 1.84426,-4.29143 3.49833,-8.66799 4.58269,-13.22104 0.79198,-3.39201 1.49606,-6.82205 1.65407,-10.31182 0,0 -0.99322,0.50607 -0.99322,0.50607 z"
       id="path1503"
       style="fill:#000000;stroke:none;stroke-width:0.542396" />
    <path
       d="m 323.85333,422.39927 c 0.53642,3.67422 0.65013,7.40304 0.81706,11.10882 0.24432,4.97925 0.25691,9.96019 0.11848,14.94182 -0.085,2.10539 -0.33674,4.1979 -0.51803,6.29576 -0.0436,0.4709 0.0209,0.28548 -0.11739,0.57703 0,0 1.021,-0.47424 1.021,-0.47424 v 0 c 0.0966,-0.32203 0.0525,-0.12536 0.0887,-0.59807 0.16618,-2.09095 0.39119,-4.17801 0.46387,-6.27552 0.11009,-4.97803 0.0845,-9.95465 -0.15804,-14.92948 -0.15372,-3.72499 -0.25725,-7.46763 -0.72469,-11.16886 0,0 -0.99092,0.52274 -0.99092,0.52274 z"
       id="path1505"
       style="fill:#000000;stroke:none;stroke-width:0.542396" />
    <path
       d="m 327.02251,423.25795 c 1.29019,3.14933 2.51275,6.32637 3.75256,9.49595 1.41158,3.3089 2.77172,6.63919 4.18758,9.94627 1.0853,2.49716 2.70415,4.67286 4.4413,6.74473 1.54083,1.68778 3.02326,3.44114 4.67508,5.02298 0,0 0.93372,-0.57557 0.93372,-0.57557 v 0 c -1.6645,-1.56443 -3.14476,-3.31746 -4.68167,-5.00449 -1.7321,-2.06314 -3.35569,-4.22185 -4.43598,-6.7115 -1.42611,-3.30034 -2.79337,-6.62543 -4.2091,-9.93021 -1.24153,-3.17431 -2.46435,-6.3559 -3.69205,-9.53548 0,0 -0.97144,0.54732 -0.97144,0.54732 z"
       id="path1507"
       style="fill:#000000;stroke:none;stroke-width:0.542396" />
    <path
       d="m 88.326081,315.46977 c -0.08604,3.06721 -1.302991,5.93701 -2.489274,8.71638 -2.001314,4.381 -4.687242,8.39531 -7.495226,12.29103 -2.340062,3.36791 -5.129426,6.3727 -8.044976,9.24118 -1.555721,1.5634 -3.23551,2.99503 -4.9795,4.34261 -0.957755,0.67125 -1.896595,1.36787 -2.820019,2.08537 0,0 1.021167,-0.40802 1.021167,-0.40802 v 0 c 0.923083,-0.7149 1.862764,-1.40695 2.814592,-2.08319 1.733825,-1.34951 3.405344,-2.77956 4.950037,-4.34449 2.901852,-2.86821 5.666274,-5.88245 7.999968,-9.24123 2.811227,-3.90549 5.499936,-7.93009 7.50448,-12.32025 1.197367,-2.80614 2.409799,-5.69547 2.535399,-8.78721 0,0 -0.996648,0.50782 -0.996648,0.50782 z"
       id="path1509"
       style="fill:#000000;stroke:none;stroke-width:0.542396" />
    <path
       d="m 90.595647,316.31527 c 0.06531,3.02043 -0.09878,6.03782 -0.354481,9.04603 -0.451088,3.78645 -0.944009,7.56922 -1.486572,11.34379 -0.367847,2.42817 -0.578969,4.87495 -0.858869,7.3137 -0.177141,1.58628 -0.266245,3.18127 -0.304985,4.77649 -0.0054,0.32637 0.0033,0.87379 -0.06533,1.20772 -0.02162,0.10517 -0.217731,0.34499 -0.120936,0.29853 1.022403,-0.49072 0.871572,-0.42759 0.638847,-1.11784 0,0 -0.971862,0.53618 -0.971862,0.53618 v 0 c 0.06637,0.1924 -0.0038,0.56102 0.199123,0.57724 1.48349,0.11856 1.285544,-1.10252 1.305909,-2.00099 0.0413,-1.59052 0.117451,-3.18119 0.299186,-4.76271 0.275487,-2.43253 0.46473,-4.87463 0.830839,-7.29655 0.530484,-3.77624 1.026033,-7.55854 1.475814,-11.34509 0.257813,-3.02083 0.418994,-6.04968 0.406546,-9.08257 0,0 -0.993228,0.50607 -0.993229,0.50607 z"
       id="path1511"
       style="fill:#000000;stroke:none;stroke-width:0.542396" />
    <path
       d="m 94.093489,314.85694 c 0.855417,3.93708 2.031405,7.79156 3.146166,11.66011 1.20827,4.44235 2.698488,8.78882 4.376075,13.07303 1.08706,2.85581 2.66646,5.47736 4.44138,7.95134 0.74871,1.0313 1.5265,2.03957 2.38021,2.9858 0,0 0.94137,-0.57079 0.94137,-0.57079 v 0 c -0.85976,-0.93644 -1.63979,-1.939 -2.38807,-2.96669 -1.78473,-2.45642 -3.36691,-5.06592 -4.45729,-7.91131 -1.68411,-4.27572 -3.189873,-8.61197 -4.401048,-13.04816 -1.113247,-3.87318 -2.27498,-7.7383 -3.056829,-11.69612 0,0 -0.981964,0.52279 -0.981964,0.52279 z"
       id="path1513"
       style="fill:#000000;stroke:none;stroke-width:0.542396" />
    <path
       d="m -261.0202,433.00798 c -1.25827,3.58772 -3.08765,6.93208 -4.95251,10.23183 -2.70185,4.52649 -6.18514,8.50556 -9.8057,12.31045 -1.71323,1.70265 -3.47525,3.3609 -5.14061,5.11088 -0.40876,0.36544 -0.76457,0.77211 -1.08974,1.21092 0,0 1.02404,-0.44095 1.02404,-0.44095 v 0 c 0.32846,-0.42755 0.68488,-0.82651 1.08154,-1.19362 1.656,-1.73622 3.39489,-3.39333 5.09066,-5.09037 3.60082,-3.81466 7.07184,-7.79584 9.7645,-12.32001 1.88188,-3.32716 3.73972,-6.69459 5.03618,-10.30218 0,0 -1.00836,0.48305 -1.00836,0.48305 z"
       id="path1515"
       style="fill:#000000;stroke:none;stroke-width:0.542396" />
    <path
       d="m -259.69259,435.00947 c 0.41896,3.04258 0.59607,6.12148 0.77746,9.18729 0.17982,3.59333 0.24297,7.19105 0.27219,10.78833 0.0486,1.8519 0.21486,3.69747 0.30761,5.54709 0.0364,0.55118 0.0467,1.0957 10e-4,1.64553 0,0 0.9962,-0.49856 0.9962,-0.49856 v 0 c 0.0346,-0.55261 0.0225,-1.10088 -0.0152,-1.65388 -0.0979,-1.84362 -0.2845,-3.68186 -0.33445,-5.52818 -0.04,-3.59524 -0.13132,-7.1896 -0.29658,-10.78145 -0.17029,-3.08026 -0.3577,-6.16916 -0.72584,-9.23158 0,0 -0.98271,0.52541 -0.98271,0.52541 z"
       id="path1517"
       style="fill:#000000;stroke:none;stroke-width:0.542396" />
    <path
       d="m -256.66878,433.87554 c 0.50235,2.85282 1.18321,5.66439 1.91436,8.46672 0.90885,3.46001 2.00449,6.86549 3.35227,10.17895 1.25411,2.90295 2.85974,5.61208 4.76042,8.13342 0,0 0.92163,-0.5475 0.92163,-0.5475 v 0 c -1.90699,-2.50642 -3.49392,-5.21459 -4.75626,-8.10368 -1.35032,-3.30693 -2.43656,-6.71016 -3.35269,-10.1626 -0.72135,-2.80889 -1.40334,-5.62456 -1.85703,-8.49071 0,0 -0.9827,0.5254 -0.9827,0.5254 z"
       id="path1519"
       style="fill:#000000;stroke:none;stroke-width:0.542396" />
    <path
       d="m -154.5142,429.96447 c -0.72411,3.77765 -1.84046,7.44104 -3.1869,11.03837 -1.86153,4.81772 -4.71069,9.12672 -7.67788,13.31785 -1.74865,2.36646 -3.66085,4.60418 -5.52236,6.88065 -0.42149,0.45305 -0.7987,0.94171 -1.21595,1.39803 0,0 1.02915,-0.43283 1.02915,-0.43283 v 0 c 0.40407,-0.45934 0.78104,-0.9407 1.19266,-1.39372 1.84893,-2.26518 3.72894,-4.50757 5.46339,-6.86332 2.96397,-4.19854 5.79813,-8.52273 7.66504,-13.34113 1.3566,-3.61429 2.46838,-7.29531 3.24693,-11.08009 0,0 -0.99408,0.47619 -0.99408,0.47619 z"
       id="path1521"
       style="fill:#000000;stroke:none;stroke-width:0.542396" />
    <path
       d="m -152.39629,430.00271 c 0.654,4.41565 0.95202,8.86989 1.19291,13.32365 0.31163,4.99782 0.2925,9.9936 -0.24933,14.97131 -0.36254,1.90781 -0.34015,3.91221 -0.84223,5.79395 0,0 1.00658,-0.48368 1.00658,-0.48368 v 0 c 0.39442,-1.90035 0.4662,-3.86189 0.77412,-5.77591 0.52215,-4.97927 0.51143,-9.97299 0.21026,-14.97004 -0.23941,-4.46998 -0.55628,-8.93488 -1.10216,-13.3794 0,0 -0.99015,0.52012 -0.99015,0.52012 z"
       id="path1523"
       style="fill:#000000;stroke:none;stroke-width:0.542396" />
    <path
       d="m -148.84952,431.19545 c 1.13511,4.09839 2.32518,8.17755 3.60786,12.23407 1.34367,4.23182 2.88594,8.3912 5.0607,12.26867 1.62217,2.82393 4.05621,4.56653 6.76337,6.23954 1.10279,0.47445 2.6382,1.83055 3.85064,1.9222 0.14997,0.0114 0.29753,-0.0442 0.4463,-0.0662 0,0 0.88903,-0.67297 0.88903,-0.67297 v 0 c -0.14244,0.0358 -0.28045,0.10864 -0.42731,0.1074 -1.1575,-0.01 -2.80995,-1.42232 -3.86076,-1.86992 -2.69497,-1.65333 -5.11827,-3.39402 -6.74326,-6.18871 -2.18146,-3.8618 -3.74315,-8.00552 -5.09806,-12.22322 -0.5571,-1.76331 -1.28688,-4.02987 -1.79448,-5.80922 -0.61421,-2.15307 -1.06356,-4.34924 -1.72258,-6.48893 0,0 -0.97145,0.54732 -0.97145,0.54732 z"
       id="path1525"
       style="fill:#000000;stroke:none;stroke-width:0.542396" />
    <path
       d="m -44.673461,370.99451 c 0.02278,0.23389 0.06788,0.46665 0.06838,0.70165 0.0067,3.18654 -0.894863,6.65583 -1.719598,9.71005 -1.371659,4.51265 -4.198089,8.35033 -7.139295,11.96292 -2.364364,2.7849 -4.981998,5.3339 -7.416868,8.05493 -0.912826,0.93937 -1.740149,1.95601 -2.646448,2.90081 0,0 1.020967,-0.42611 1.020967,-0.42611 v 0 c 0.887058,-0.9475 1.7117,-1.95123 2.609881,-2.88894 2.426931,-2.71814 5.042085,-5.26026 7.390625,-8.04923 2.935293,-3.62461 5.752917,-7.47832 7.114373,-11.99933 0.831313,-3.08652 1.728221,-6.55815 1.76535,-9.77482 0.0028,-0.23894 -0.03763,-0.47643 -0.05644,-0.71467 0,0 -0.99092,0.52274 -0.99092,0.52274 z"
       id="path1527"
       style="fill:#000000;stroke:none;stroke-width:0.542396" />
    <path
       d="m -39.001766,376.08475 c 0.562587,4.34705 0.787308,8.72808 1.029857,13.10185 0.262916,5.24174 0.386024,10.48927 0.435895,15.73697 -0.139448,1.03862 -0.296994,0.84743 0.72176,0.17727 0,0 -0.880084,0.70614 -0.880084,0.70614 v 0 c 1.25149,-0.78467 1.019231,-0.24661 1.104935,-1.36757 -0.111583,-5.23891 -0.238006,-10.47787 -0.492908,-15.71221 -0.235543,-4.39033 -0.446652,-8.78493 -0.932638,-13.15659 0,0 -0.986817,0.51414 -0.986817,0.51414 z"
       id="path1529"
       style="fill:#000000;stroke:none;stroke-width:0.542396" />
    <path
       d="m -30.448321,375.76908 c 1.803588,3.80121 3.421727,7.68641 5.216884,11.49281 1.891239,4.09048 4.399061,7.82661 7.287379,11.27035 2.108561,2.51584 4.730942,4.50188 7.313301,6.49671 0.319785,0.23992 0.6395695,0.47982 0.9593544,0.71975 0,0 0.91518,-0.57907 0.91518,-0.57907 v 0 c -0.3206422,-0.23881 -0.6412844,-0.47765 -0.9619268,-0.71649 -2.5916846,-1.97586 -5.2119526,-3.95566 -7.3244096,-6.46279 -2.89695,-3.42665 -5.404687,-7.15198 -7.295254,-11.23453 -1.795603,-3.81053 -3.421609,-7.69369 -5.147507,-11.53507 0,0 -0.963001,0.54833 -0.963001,0.54833 z"
       id="path1531"
       style="fill:#000000;stroke:none;stroke-width:0.542396" />
    <text
       xml:space="preserve"
       style="font-style:normal;font-weight:normal;font-size:10.5833px;line-height:1.25;font-family:sans-serif;fill:#000000;fill-opacity:1;stroke:none;stroke-width:0.264583"
       x="109.20712"
       y="500.0636"
       id="text875-6-1-0"><tspan
         sodipodi:role="line"
         id="tspan873-21-2-1"
         x="109.20712"
         y="500.0636"
         style="font-style:normal;font-variant:normal;font-weight:normal;font-stretch:normal;font-family:'Segoe Script';-inkscape-font-specification:'Segoe Script';stroke-width:0.264583">g != h </tspan></text>
    <text
       xml:space="preserve"
       style="font-style:normal;font-weight:normal;font-size:10.5833px;line-height:1.25;font-family:sans-serif;fill:#000000;fill-opacity:1;stroke:none;stroke-width:0.264583"
       x="76.624046"
       y="528.17224"
       id="text835-6-2-2-5-8-9-9-2-7"><tspan
         sodipodi:role="line"
         id="tspan833-3-4-7-54-6-5-6-8-6"
         x="76.624046"
         y="528.17224"
         style="font-style:normal;font-variant:normal;font-weight:normal;font-stretch:normal;font-family:'Segoe Script';-inkscape-font-specification:'Segoe Script';stroke-width:0.264583">ED(1, 0)</tspan></text>
    <text
       xml:space="preserve"
       style="font-style:normal;font-weight:normal;font-size:10.5833px;line-height:1.25;font-family:sans-serif;fill:#000000;fill-opacity:1;stroke:none;stroke-width:0.264583"
       x="138.61214"
       y="529.68414"
       id="text835-6-2-2-5-8-9-9-2-3"><tspan
         sodipodi:role="line"
         id="tspan833-3-4-7-54-6-5-6-8-2"
         x="138.61214"
         y="529.68414"
         style="font-style:normal;font-variant:normal;font-weight:normal;font-stretch:normal;font-family:'Segoe Script';-inkscape-font-specification:'Segoe Script';stroke-width:0.264583">ED(0, 1)</tspan></text>
    <text
       xml:space="preserve"
       style="font-style:normal;font-weight:normal;font-size:10.5833px;line-height:1.25;font-family:sans-serif;fill:#000000;fill-opacity:1;stroke:none;stroke-width:0.264583"
       x="203.62404"
       y="530.06213"
       id="text835-6-2-2-5-8-9-9-2-2"><tspan
         sodipodi:role="line"
         id="tspan833-3-4-7-54-6-5-6-8-4"
         x="203.62404"
         y="530.06213"
         style="font-style:normal;font-variant:normal;font-weight:normal;font-stretch:normal;font-family:'Segoe Script';-inkscape-font-specification:'Segoe Script';stroke-width:0.264583">ED(0, 0)</tspan></text>
    <text
       id="text835-6-2-2-5-8-9-9-2-2-7"
       y="548.58301"
       x="221.20584"
       style="font-style:normal;font-weight:normal;font-size:10.5833px;line-height:1.25;font-family:sans-serif;fill:#000000;fill-opacity:1;stroke:none;stroke-width:0.264583"
       xml:space="preserve"><tspan
         sodipodi:role="line"
         style="font-style:normal;font-variant:normal;font-weight:normal;font-stretch:normal;font-family:'Segoe Script';-inkscape-font-specification:'Segoe Script';fill:#ff0000;stroke-width:0.264583"
         y="548.58301"
         x="221.20584"
         id="tspan833-3-4-7-54-6-5-6-8-4-0">0</tspan></text>
    <text
       xml:space="preserve"
       style="font-style:normal;font-weight:normal;font-size:10.5833px;line-height:1.25;font-family:sans-serif;fill:#000000;fill-opacity:1;stroke:none;stroke-width:0.264583"
       x="157.95235"
       y="548.06915"
       id="text835-6-2-2-5-8-9-9-2-2-7-0"><tspan
         id="tspan833-3-4-7-54-6-5-6-8-4-0-8"
         x="157.95235"
         y="548.06915"
         style="font-style:normal;font-variant:normal;font-weight:normal;font-stretch:normal;font-family:'Segoe Script';-inkscape-font-specification:'Segoe Script';fill:#ff0000;stroke-width:0.264583"
         sodipodi:role="line">1</tspan></text>
    <text
       id="text1639"
       y="542.01782"
       x="95.25"
       style="font-style:normal;font-weight:normal;font-size:10.5833px;line-height:1.25;font-family:sans-serif;fill:#000000;fill-opacity:1;stroke:none;stroke-width:0.264583"
       xml:space="preserve"><tspan
         style="stroke-width:0.264583"
         y="542.01782"
         x="95.25"
         id="tspan1637"
         sodipodi:role="line"></tspan></text>
    <text
       id="text835-6-2-2-5-8-9-9-2-2-7-0-0"
       y="548.16473"
       x="98.506737"
       style="font-style:normal;font-weight:normal;font-size:10.5833px;line-height:1.25;font-family:sans-serif;fill:#000000;fill-opacity:1;stroke:none;stroke-width:0.264583"
       xml:space="preserve"><tspan
         sodipodi:role="line"
         style="font-style:normal;font-variant:normal;font-weight:normal;font-stretch:normal;font-family:'Segoe Script';-inkscape-font-specification:'Segoe Script';fill:#ff0000;stroke-width:0.264583"
         y="548.16473"
         x="98.506737"
         id="tspan833-3-4-7-54-6-5-6-8-4-0-8-7">1</tspan></text>
    <path
       d="m 245.18876,367.76482 c 0.0501,3.35452 0.0484,6.70595 -0.12373,10.05679 -0.18329,3.5202 -0.53264,7.02802 -0.77587,10.54391 -0.16544,2.49325 -0.20545,4.99216 -0.22177,7.49006 0.0553,1.56337 0.0207,0.79695 0.10187,2.29928 0,0 0.96582,-0.49882 0.96582,-0.49882 v 0 c -0.0843,-1.49727 -0.0498,-0.73337 -0.10163,-2.29182 0.02,-2.49388 0.0517,-4.98877 0.21312,-7.47836 0.23382,-3.51261 0.57508,-7.01723 0.75177,-10.53378 0.17253,-3.36278 0.17285,-6.72597 0.18194,-10.09248 0,0 -0.99152,0.50522 -0.99152,0.50522 z"
       id="path1667"
       style="fill:#000000;stroke:none;stroke-width:0.542396" />
    <path
       d="m 241.5441,367.93164 c -1.42509,1.92704 -2.85525,3.85117 -4.23974,5.80779 -2.0615,2.72674 -3.97349,5.58835 -6.19812,8.18931 -0.50288,0.58793 -1.04482,1.1413 -1.56722,1.71196 -2.78555,2.88626 -6.1266,5.1363 -9.61135,7.08776 -1.37887,0.77216 -4.22782,2.12955 -5.47776,2.73905 -4.76972,2.40641 -9.81959,4.14258 -14.82406,5.97447 -2.73179,1.02222 -5.46049,2.05333 -8.1787,3.11118 0,0 -0.85935,0.67464 -0.85935,0.67464 v 0 c 2.72854,-1.07029 5.46916,-2.10989 8.21287,-3.14076 5.02202,-1.84735 10.09237,-3.59148 14.88183,-6.007 6.00414,-2.91922 12.09439,-6.00551 16.81109,-10.83976 0.52336,-0.57367 1.06604,-1.13028 1.57009,-1.72099 2.22569,-2.60839 4.14581,-5.47129 6.21313,-8.20187 1.40335,-1.96334 2.84285,-3.90104 4.29244,-5.83038 0,0 -1.02515,0.4446 -1.02515,0.4446 z"
       id="path1669"
       style="fill:#000000;stroke:none;stroke-width:0.542396" />
    <path
       d="m 251.1026,369.80148 c 1.6447,1.77273 3.38538,3.55629 5.4979,4.78015 0.94933,0.54996 1.96495,0.97657 2.94742,1.46486 1.23436,0.49686 2.45652,1.02518 3.70308,1.49059 2.50205,0.93413 5.7029,1.94196 8.23954,2.76669 4.16507,1.35416 8.33747,2.60869 12.55522,3.78883 6.79043,1.59713 13.61602,3.08293 20.18927,5.44725 2.15636,0.80814 4.26879,1.76379 6.2007,3.02693 0.70604,0.46165 1.59692,1.14065 2.27608,1.64648 1.65391,1.17869 3.09557,2.5872 4.4075,4.1288 0.58333,0.77427 0.29419,0.38743 0.86747,1.16049 0,0 0.94914,-0.56259 0.94914,-0.56259 v 0 c -0.57582,-0.77549 -0.28395,-0.38732 -0.8757,-1.1644 -1.324,-1.54467 -2.76902,-2.96312 -4.43968,-4.13758 -0.61269,-0.45522 -1.65118,-1.24037 -2.28359,-1.65389 -1.94331,-1.27069 -4.07778,-2.21469 -6.2484,-3.02059 -6.59985,-2.35212 -13.45792,-3.78499 -20.26367,-5.40506 -4.215,-1.18166 -8.38658,-2.43518 -12.5498,-3.78786 -2.56275,-0.83267 -5.69756,-1.81763 -8.22223,-2.77016 -1.23764,-0.46694 -2.44916,-1.00041 -3.67374,-1.50061 -0.96812,-0.49138 -1.96911,-0.92276 -2.90434,-1.47415 -2.09059,-1.23256 -3.82214,-3.00908 -5.41692,-4.80954 0,0 -0.95525,0.58536 -0.95525,0.58536 z"
       id="path1671"
       style="fill:#000000;stroke:none;stroke-width:0.542396" />
    <text
       xml:space="preserve"
       style="font-style:normal;font-weight:normal;font-size:10.5833px;line-height:1.25;font-family:sans-serif;fill:#000000;fill-opacity:1;stroke:none;stroke-width:0.264583"
       x="58.819241"
       y="482.01895"
       id="text835-6-2-2-5-8-9-9-2-2-7-0-0-2"><tspan
         id="tspan833-3-4-7-54-6-5-6-8-4-0-8-7-8"
         x="58.819241"
         y="482.01895"
         style="font-style:normal;font-variant:normal;font-weight:normal;font-stretch:normal;font-family:'Segoe Script';-inkscape-font-specification:'Segoe Script';fill:#0000ff;stroke-width:0.264583"
         sodipodi:role="line">1 + min(<tspan
   id="tspan1839"
   style="fill:#ff0000">1</tspan>,<tspan
   id="tspan1841"
   style="fill:#ff0000">1</tspan>,<tspan
   id="tspan1843"
   style="fill:#ff0000">0</tspan>) =</tspan></text>
    <text
       id="text835-6-2-2-5-8-9-9-2-2-7-0-0-2-6"
       y="369.4223"
       x="271.09766"
       style="font-style:normal;font-weight:normal;font-size:10.5833px;line-height:1.25;font-family:sans-serif;fill:#000000;fill-opacity:1;stroke:none;stroke-width:0.264583"
       xml:space="preserve"><tspan
         sodipodi:role="line"
         style="font-style:normal;font-variant:normal;font-weight:normal;font-stretch:normal;font-family:'Segoe Script';-inkscape-font-specification:'Segoe Script';fill:#008080;stroke-width:0.264583"
         y="369.4223"
         x="271.09766"
         id="tspan833-3-4-7-54-6-5-6-8-4-0-8-7-8-9">= 1 + min(<tspan
   id="tspan1845"
   style="fill:#0000ff">1</tspan>,<tspan
   id="tspan1847"
   style="fill:#0000ff">2</tspan>,<tspan
   id="tspan1849"
   style="fill:#0000ff">2</tspan>)</tspan></text>
    <text
       xml:space="preserve"
       style="font-style:normal;font-weight:normal;font-size:10.5833px;line-height:1.25;font-family:sans-serif;fill:#000000;fill-opacity:1;stroke:none;stroke-width:0.264583"
       x="167.91016"
       y="425.36273"
       id="text835-6-2-2-5-8-9-9-2-2-7-0-0-2-6-0"><tspan
         id="tspan833-3-4-7-54-6-5-6-8-4-0-8-7-8-9-7"
         x="167.91016"
         y="425.36273"
         style="font-style:normal;font-variant:normal;font-weight:normal;font-stretch:normal;font-family:'Segoe Script';-inkscape-font-specification:'Segoe Script';fill:#0000ff;stroke-width:0.264583"
         sodipodi:role="line">1</tspan></text>
    <text
       id="text835-6-2-2-5-8-9-9-2-2-7-0-0-2-6-0-6"
       y="424.94452"
       x="238.7359"
       style="font-style:normal;font-weight:normal;font-size:10.5833px;line-height:1.25;font-family:sans-serif;fill:#000000;fill-opacity:1;stroke:none;stroke-width:0.264583"
       xml:space="preserve"><tspan
         sodipodi:role="line"
         style="font-style:normal;font-variant:normal;font-weight:normal;font-stretch:normal;font-family:'Segoe Script';-inkscape-font-specification:'Segoe Script';fill:#0000ff;stroke-width:0.264583"
         y="424.94452"
         x="238.7359"
         id="tspan833-3-4-7-54-6-5-6-8-4-0-8-7-8-9-7-7">2</tspan></text>
    <text
       xml:space="preserve"
       style="font-style:normal;font-weight:normal;font-size:10.5833px;line-height:1.25;font-family:sans-serif;fill:#000000;fill-opacity:1;stroke:none;stroke-width:0.264583"
       x="308.68069"
       y="426.39368"
       id="text835-6-2-2-5-8-9-9-2-2-7-0-0-2-6-0-6-7"><tspan
         id="tspan833-3-4-7-54-6-5-6-8-4-0-8-7-8-9-7-7-5"
         x="308.68069"
         y="426.39368"
         style="font-style:normal;font-variant:normal;font-weight:normal;font-stretch:normal;font-family:'Segoe Script';-inkscape-font-specification:'Segoe Script';fill:#0000ff;stroke-width:0.264583"
         sodipodi:role="line">2</tspan></text>
    <text
       xml:space="preserve"
       style="font-style:normal;font-weight:normal;font-size:10.5833px;line-height:1.25;font-family:sans-serif;fill:#000000;fill-opacity:1;stroke:none;stroke-width:0.264583"
       x="148.63336"
       y="260.94308"
       id="text835-6-2-2-5-8-9-9-2-2-7-0-0-2-6-6"><tspan
         id="tspan833-3-4-7-54-6-5-6-8-4-0-8-7-8-9-0"
         x="148.63336"
         y="260.94308"
         style="font-style:normal;font-variant:normal;font-weight:normal;font-stretch:normal;font-family:'Segoe Script';-inkscape-font-specification:'Segoe Script';fill:#ff00ff;stroke-width:0.264583"
         sodipodi:role="line">1 + min(<tspan
   id="tspan1999"
   style="fill:#008080">?</tspan>,<tspan
   id="tspan2001"
   style="fill:#008080">?</tspan>,<tspan
   id="tspan1853"
   style="fill:#008080">2</tspan>)</tspan></text>
    <text
       id="text835-6-2-2-5-8-9-9-2-2-7-0-0-2-6-0-6-7-2"
       y="314.51273"
       x="246.6926"
       style="font-style:normal;font-weight:normal;font-size:10.5833px;line-height:1.25;font-family:sans-serif;fill:#000000;fill-opacity:1;stroke:none;stroke-width:0.264583"
       xml:space="preserve"><tspan
         sodipodi:role="line"
         style="font-style:normal;font-variant:normal;font-weight:normal;font-stretch:normal;font-family:'Segoe Script';-inkscape-font-specification:'Segoe Script';fill:#008080;stroke-width:0.264583"
         y="314.51273"
         x="246.6926"
         id="tspan833-3-4-7-54-6-5-6-8-4-0-8-7-8-9-7-7-5-0">2</tspan></text>
    <text
       id="text835-6-2-2-5-8-9-9-2-2-7-0-0-2-6-0-69"
       y="481.26297"
       x="165.7865"
       style="font-style:normal;font-weight:normal;font-size:10.5833px;line-height:1.25;font-family:sans-serif;fill:#000000;fill-opacity:1;stroke:none;stroke-width:0.264583"
       xml:space="preserve"><tspan
         sodipodi:role="line"
         style="font-style:normal;font-variant:normal;font-weight:normal;font-stretch:normal;font-family:'Segoe Script';-inkscape-font-specification:'Segoe Script';fill:#0000ff;stroke-width:0.264583"
         y="481.26297"
         x="165.7865"
         id="tspan833-3-4-7-54-6-5-6-8-4-0-8-7-8-9-7-3">1</tspan></text>
    <text
       xml:space="preserve"
       style="font-style:normal;font-weight:normal;font-size:10.5833px;line-height:1.25;font-family:sans-serif;fill:#000000;fill-opacity:1;stroke:none;stroke-width:0.264583"
       x="254.16255"
       y="369.04428"
       id="text835-6-2-2-5-8-9-9-2-2-7-0-0-2-6-1"><tspan
         id="tspan833-3-4-7-54-6-5-6-8-4-0-8-7-8-9-2"
         x="254.16255"
         y="369.04428"
         style="font-style:normal;font-variant:normal;font-weight:normal;font-stretch:normal;font-family:'Segoe Script';-inkscape-font-specification:'Segoe Script';fill:#008080;stroke-width:0.264583"
         sodipodi:role="line">2</tspan></text>
    <path
       d="m -257.06067,481.17061 c -0.58794,0.4871 -1.67898,1.01767 -1.92297,1.79758 -0.0328,0.10472 -0.008,0.21931 -0.0122,0.32898 0.0445,0.09 0.0605,0.20106 0.13341,0.27006 0.59936,0.56684 2.2539,-0.90289 2.39821,-1.01777 0.13508,-0.10755 0.20926,-0.27474 0.31389,-0.41209 0.35915,-0.56764 0.4361,-1.30633 -0.39068,-1.34133 -0.0886,0.0282 -0.1772,0.0564 -0.2658,0.0845 0,0 -0.88285,0.69303 -0.88285,0.69303 v 0 c 0.0806,-0.0378 0.16109,-0.0756 0.24163,-0.11338 0.78475,-0.0994 0.58799,0.66019 0.27532,1.1148 -0.62933,0.77097 -0.26476,0.19246 0.25305,0.16978 0.14848,-0.007 -0.25422,0.15558 -0.38984,0.21638 -0.14751,0.0661 -0.40915,0.18261 -0.57725,0.0512 -0.0636,-0.0497 -0.0712,-0.14481 -0.10679,-0.2172 0.10564,-0.97679 1.29315,-1.48159 1.97599,-2.03274 0,0 -1.04307,0.40812 -1.04307,0.40812 z"
       id="path1857"
       style="fill:#000000;stroke:none;stroke-width:0.542396" />
    <path
       d="m -257.38943,489.16364 c -0.4361,0.50131 -1.13244,1.40116 -0.19002,1.77261 1.2703,-0.2462 2.06535,-1.28416 1.73483,-2.49116 -0.33438,-0.50363 -0.7399,-0.49411 -1.25521,-0.29813 0,0 -0.87681,0.69426 -0.87681,0.69426 v 0 c 0.44373,-0.2232 0.82033,-0.32586 1.14784,0.13801 0.10184,0.3951 0.10089,0.71152 -0.0624,1.10001 -0.0579,0.13784 -0.36408,0.36353 -0.21737,0.39235 0.25089,0.0492 0.46776,-0.20744 0.70754,-0.29615 0.0881,-0.0326 -0.16765,0.0849 -0.25148,0.12737 -0.89526,-0.16338 -0.0135,-1.24365 0.29812,-1.5679 0,0 -1.03507,0.42873 -1.03507,0.42873 z"
       id="path1859"
       style="fill:#000000;stroke:none;stroke-width:0.542396" />
    <path
       d="m -256.12652,497.80459 c -0.45179,-0.0678 -0.87285,0.0368 -1.25525,0.28369 -0.67012,0.43259 -1.50465,0.5774 -0.94511,1.17496 0.82987,0.42307 1.58033,-0.26337 2.2144,-0.79761 0.17768,-0.1497 0.28748,-0.58957 0.35321,-0.79574 0.0704,-0.48844 -0.0848,-0.79663 -0.50876,-1.02057 0,0 -0.93621,0.61976 -0.93621,0.61976 v 0 c 0.4041,0.15965 0.50853,0.44622 0.43408,0.87492 -0.0452,0.12547 -0.0761,0.25707 -0.13569,0.37637 -0.0659,0.13182 -0.3819,0.33859 -0.23844,0.37229 0.23447,0.0551 0.44757,-0.17822 0.66991,-0.27085 0.31772,-0.1324 -0.91855,0.40204 -0.89465,0.0517 -0.46561,-0.37645 0.7086,-0.48265 -0.88196,0.11615 -0.12485,0.047 0.22263,-0.1492 0.34408,-0.20441 0.43992,-0.20003 0.40254,-0.15002 0.86475,-0.13505 0,0 0.91564,-0.64561 0.91564,-0.64561 z"
       id="path1861"
       style="fill:#000000;stroke:none;stroke-width:0.542396" />
    <path
       style="fill:#000000;stroke:none;stroke-width:0.542396"
       id="path1857-6"
       d="m -150.50124,473.01164 c -0.58794,0.4871 -1.67898,1.01767 -1.92297,1.79758 -0.0328,0.10472 -0.008,0.21931 -0.0122,0.32898 0.0445,0.09 0.0605,0.20106 0.13341,0.27006 0.59936,0.56684 2.2539,-0.90289 2.39821,-1.01777 0.13508,-0.10755 0.20926,-0.27474 0.31389,-0.41209 0.35915,-0.56764 0.4361,-1.30633 -0.39068,-1.34133 -0.0886,0.0282 -0.1772,0.0564 -0.2658,0.0845 0,0 -0.88285,0.69303 -0.88285,0.69303 v 0 c 0.0806,-0.0378 0.16109,-0.0756 0.24163,-0.11338 0.78475,-0.0994 0.58799,0.66019 0.27532,1.1148 -0.62933,0.77097 -0.26476,0.19246 0.25305,0.16978 0.14848,-0.007 -0.25422,0.15558 -0.38984,0.21638 -0.14751,0.0661 -0.40915,0.18261 -0.57725,0.0512 -0.0636,-0.0497 -0.0712,-0.14481 -0.10679,-0.2172 0.10564,-0.97679 1.29315,-1.48159 1.97599,-2.03274 0,0 -1.04307,0.40812 -1.04307,0.40812 z" />
    <path
       style="fill:#000000;stroke:none;stroke-width:0.542396"
       id="path1859-6"
       d="m -150.83,481.00467 c -0.4361,0.50131 -1.13244,1.40116 -0.19002,1.77261 1.2703,-0.2462 2.06535,-1.28416 1.73483,-2.49116 -0.33438,-0.50363 -0.7399,-0.49411 -1.25521,-0.29813 0,0 -0.87681,0.69426 -0.87681,0.69426 v 0 c 0.44373,-0.2232 0.82033,-0.32586 1.14784,0.13801 0.10184,0.3951 0.10089,0.71152 -0.0624,1.10001 -0.0579,0.13784 -0.36408,0.36353 -0.21737,0.39235 0.25089,0.0492 0.46776,-0.20744 0.70754,-0.29615 0.0881,-0.0326 -0.16765,0.0849 -0.25148,0.12737 -0.89526,-0.16338 -0.0135,-1.24365 0.29812,-1.5679 0,0 -1.03507,0.42873 -1.03507,0.42873 z" />
    <path
       style="fill:#000000;stroke:none;stroke-width:0.542396"
       id="path1861-5"
       d="m -149.56709,489.64562 c -0.45179,-0.0678 -0.87285,0.0368 -1.25525,0.28369 -0.67012,0.43259 -1.50465,0.5774 -0.94511,1.17496 0.82987,0.42307 1.58033,-0.26337 2.2144,-0.79761 0.17768,-0.1497 0.28748,-0.58957 0.35321,-0.79574 0.0704,-0.48844 -0.0848,-0.79663 -0.50876,-1.02057 0,0 -0.93621,0.61976 -0.93621,0.61976 v 0 c 0.4041,0.15965 0.50853,0.44622 0.43408,0.87492 -0.0452,0.12547 -0.0761,0.25707 -0.13569,0.37637 -0.0659,0.13182 -0.3819,0.33859 -0.23844,0.37229 0.23447,0.0551 0.44757,-0.17822 0.66991,-0.27085 0.31772,-0.1324 -0.91855,0.40204 -0.89465,0.0517 -0.46561,-0.37645 0.7086,-0.48265 -0.88196,0.11615 -0.12485,0.047 0.22263,-0.1492 0.34408,-0.20441 0.43992,-0.20003 0.40254,-0.15002 0.86475,-0.13505 0,0 0.91564,-0.64561 0.91564,-0.64561 z" />
    <path
       style="fill:#000000;stroke:none;stroke-width:0.542396"
       id="path1857-3"
       d="m -34.840526,412.53545 c -0.58794,0.4871 -1.67898,1.01767 -1.92297,1.79758 -0.0328,0.10472 -0.008,0.21931 -0.0122,0.32898 0.0445,0.09 0.0605,0.20106 0.13341,0.27006 0.59936,0.56684 2.2539,-0.90289 2.39821,-1.01777 0.13508,-0.10755 0.20926,-0.27474 0.31389,-0.41209 0.35915,-0.56764 0.4361,-1.30633 -0.39068,-1.34133 -0.0886,0.0282 -0.1772,0.0564 -0.2658,0.0845 0,0 -0.88285,0.69303 -0.88285,0.69303 v 0 c 0.0806,-0.0378 0.16109,-0.0756 0.24163,-0.11338 0.78475,-0.0994 0.58799,0.66019 0.27532,1.1148 -0.62933,0.77097 -0.26476,0.19246 0.25305,0.16978 0.14848,-0.007 -0.25422,0.15558 -0.38984,0.21638 -0.14751,0.0661 -0.40915,0.18261 -0.57725,0.0512 -0.0636,-0.0497 -0.0712,-0.14481 -0.10679,-0.2172 0.10564,-0.97679 1.29315,-1.48159 1.97599,-2.03274 0,0 -1.04307,0.40812 -1.04307,0.40812 z" />
    <path
       style="fill:#000000;stroke:none;stroke-width:0.542396"
       id="path1859-2"
       d="m -35.169286,420.52848 c -0.4361,0.50131 -1.13244,1.40116 -0.19002,1.77261 1.2703,-0.2462 2.06535,-1.28416 1.73483,-2.49116 -0.33438,-0.50363 -0.7399,-0.49411 -1.25521,-0.29813 0,0 -0.87681,0.69426 -0.87681,0.69426 v 0 c 0.44373,-0.2232 0.82033,-0.32586 1.14784,0.13801 0.10184,0.3951 0.10089,0.71152 -0.0624,1.10001 -0.0579,0.13784 -0.36408,0.36353 -0.21737,0.39235 0.25089,0.0492 0.46776,-0.20744 0.70754,-0.29615 0.0881,-0.0326 -0.16765,0.0849 -0.25148,0.12737 -0.89526,-0.16338 -0.0135,-1.24365 0.29812,-1.5679 0,0 -1.03507,0.42873 -1.03507,0.42873 z" />
    <path
       style="fill:#000000;stroke:none;stroke-width:0.542396"
       id="path1861-1"
       d="m -33.906376,429.16943 c -0.45179,-0.0678 -0.87285,0.0368 -1.25525,0.28369 -0.67012,0.43259 -1.50465,0.5774 -0.94511,1.17496 0.82987,0.42307 1.58033,-0.26337 2.2144,-0.79761 0.17768,-0.1497 0.28748,-0.58957 0.35321,-0.79574 0.0704,-0.48844 -0.0848,-0.79663 -0.50876,-1.02057 0,0 -0.93621,0.61976 -0.93621,0.61976 v 0 c 0.4041,0.15965 0.50853,0.44622 0.43408,0.87492 -0.0452,0.12547 -0.0761,0.25707 -0.13569,0.37637 -0.0659,0.13182 -0.3819,0.33859 -0.23844,0.37229 0.23447,0.0551 0.44757,-0.17822 0.66991,-0.27085 0.31772,-0.1324 -0.91855,0.40204 -0.89465,0.0517 -0.46561,-0.37645 0.7086,-0.48265 -0.88196,0.11615 -0.12485,0.047 0.22263,-0.1492 0.34408,-0.20441 0.43992,-0.20003 0.40254,-0.15002 0.86475,-0.13505 0,0 0.91564,-0.64561 0.91564,-0.64561 z" />
    <path
       style="fill:#000000;stroke:none;stroke-width:0.542396"
       id="path1857-37"
       d="m 89.51364,356.59497 c -0.58794,0.4871 -1.678979,1.01767 -1.922969,1.79758 -0.0328,0.10472 -0.008,0.21931 -0.0122,0.32898 0.0445,0.09 0.0605,0.20106 0.13341,0.27006 0.59936,0.56684 2.253899,-0.90289 2.398209,-1.01777 0.13508,-0.10755 0.20926,-0.27474 0.31389,-0.41209 0.359151,-0.56764 0.4361,-1.30633 -0.39068,-1.34133 -0.0886,0.0282 -0.1772,0.0564 -0.2658,0.0845 0,0 -0.88285,0.69303 -0.88285,0.69303 v 0 c 0.0806,-0.0378 0.16109,-0.0756 0.24163,-0.11338 0.78475,-0.0994 0.58799,0.66019 0.27532,1.1148 -0.62933,0.77097 -0.26476,0.19246 0.25305,0.16978 0.14848,-0.007 -0.25422,0.15558 -0.38984,0.21638 -0.14751,0.0661 -0.40915,0.18261 -0.57725,0.0512 -0.0636,-0.0497 -0.0712,-0.14481 -0.10679,-0.2172 0.10564,-0.97679 1.29315,-1.48159 1.97599,-2.03274 0,0 -1.04307,0.40812 -1.04307,0.40812 z" />
    <path
       style="fill:#000000;stroke:none;stroke-width:0.542396"
       id="path1859-3"
       d="m 89.18488,364.588 c -0.4361,0.50131 -1.132439,1.40116 -0.19002,1.77261 1.270301,-0.2462 2.06535,-1.28416 1.734831,-2.49116 -0.334381,-0.50363 -0.739901,-0.49411 -1.255211,-0.29813 0,0 -0.87681,0.69426 -0.87681,0.69426 v 0 c 0.44373,-0.2232 0.82033,-0.32586 1.14784,0.13801 0.101841,0.3951 0.10089,0.71152 -0.0624,1.10001 -0.0579,0.13784 -0.36408,0.36353 -0.21737,0.39235 0.25089,0.0492 0.467761,-0.20744 0.70754,-0.29615 0.0881,-0.0326 -0.16765,0.0849 -0.25148,0.12737 -0.89526,-0.16338 -0.0135,-1.24365 0.29812,-1.5679 0,0 -1.03507,0.42873 -1.03507,0.42873 z" />
    <path
       style="fill:#000000;stroke:none;stroke-width:0.542396"
       id="path1861-17"
       d="m 90.44779,373.22895 c -0.45179,-0.0678 -0.87285,0.0368 -1.25525,0.28369 -0.670119,0.43259 -1.504649,0.5774 -0.945109,1.17496 0.829869,0.42307 1.580329,-0.26337 2.2144,-0.79761 0.177679,-0.1497 0.287479,-0.58957 0.35321,-0.79574 0.0704,-0.48844 -0.0848,-0.79663 -0.508761,-1.02057 0,0 -0.93621,0.61976 -0.93621,0.61976 v 0 c 0.4041,0.15965 0.50853,0.44622 0.43408,0.87492 -0.0452,0.12547 -0.0761,0.25707 -0.13569,0.37637 -0.0659,0.13182 -0.3819,0.33859 -0.23844,0.37229 0.23447,0.0551 0.44757,-0.17822 0.66991,-0.27085 0.31772,-0.1324 -0.91855,0.40204 -0.89465,0.0517 -0.46561,-0.37645 0.7086,-0.48265 -0.881959,0.11615 -0.12485,0.047 0.22263,-0.1492 0.344079,-0.20441 0.43992,-0.20003 0.40254,-0.15002 0.86475,-0.13505 0,0 0.91564,-0.64561 0.91564,-0.64561 z" />
    <path
       style="fill:#000000;stroke:none;stroke-width:0.542396"
       id="path1857-0"
       d="m 327.26066,462.05033 c -0.58794,0.4871 -1.67898,1.01767 -1.92297,1.79758 -0.0328,0.10472 -0.008,0.21931 -0.0122,0.32898 0.0445,0.09 0.0605,0.20106 0.13341,0.27006 0.59936,0.56684 2.2539,-0.90289 2.39821,-1.01777 0.13508,-0.10755 0.20926,-0.27474 0.31389,-0.41209 0.35915,-0.56764 0.4361,-1.30633 -0.39068,-1.34133 -0.0886,0.0282 -0.1772,0.0564 -0.2658,0.0845 0,0 -0.88285,0.69303 -0.88285,0.69303 v 0 c 0.0806,-0.0378 0.16109,-0.0756 0.24163,-0.11338 0.78475,-0.0994 0.58799,0.66019 0.27532,1.1148 -0.62933,0.77097 -0.26476,0.19246 0.25305,0.16978 0.14848,-0.007 -0.25422,0.15558 -0.38984,0.21638 -0.14751,0.0661 -0.40915,0.18261 -0.57725,0.0512 -0.0636,-0.0497 -0.0712,-0.14481 -0.10679,-0.2172 0.10564,-0.97679 1.29315,-1.48159 1.97599,-2.03274 0,0 -1.04307,0.40812 -1.04307,0.40812 z" />
    <path
       style="fill:#000000;stroke:none;stroke-width:0.542396"
       id="path1859-32"
       d="m 326.9319,470.04336 c -0.4361,0.50131 -1.13244,1.40116 -0.19002,1.77261 1.2703,-0.2462 2.06535,-1.28416 1.73483,-2.49116 -0.33438,-0.50363 -0.7399,-0.49411 -1.25521,-0.29813 0,0 -0.87681,0.69426 -0.87681,0.69426 v 0 c 0.44373,-0.2232 0.82033,-0.32586 1.14784,0.13801 0.10184,0.3951 0.10089,0.71152 -0.0624,1.10001 -0.0579,0.13784 -0.36408,0.36353 -0.21737,0.39235 0.25089,0.0492 0.46776,-0.20744 0.70754,-0.29615 0.0881,-0.0326 -0.16765,0.0849 -0.25148,0.12737 -0.89526,-0.16338 -0.0135,-1.24365 0.29812,-1.5679 0,0 -1.03507,0.42873 -1.03507,0.42873 z" />
    <path
       style="fill:#000000;stroke:none;stroke-width:0.542396"
       id="path1861-174"
       d="m 328.19481,478.68431 c -0.45179,-0.0678 -0.87285,0.0368 -1.25525,0.28369 -0.67012,0.43259 -1.50465,0.5774 -0.94511,1.17496 0.82987,0.42307 1.58033,-0.26337 2.2144,-0.79761 0.17768,-0.1497 0.28748,-0.58957 0.35321,-0.79574 0.0704,-0.48844 -0.0848,-0.79663 -0.50876,-1.02057 0,0 -0.93621,0.61976 -0.93621,0.61976 v 0 c 0.4041,0.15965 0.50853,0.44622 0.43408,0.87492 -0.0452,0.12547 -0.0761,0.25707 -0.13569,0.37637 -0.0659,0.13182 -0.3819,0.33859 -0.23844,0.37229 0.23447,0.0551 0.44757,-0.17822 0.66991,-0.27085 0.31772,-0.1324 -0.91855,0.40204 -0.89465,0.0517 -0.46561,-0.37645 0.7086,-0.48265 -0.88196,0.11615 -0.12485,0.047 0.22263,-0.1492 0.34408,-0.20441 0.43992,-0.20003 0.40254,-0.15002 0.86475,-0.13505 0,0 0.91564,-0.64561 0.91564,-0.64561 z" />
    <path
       d="m 252.79935,460.53843 c -0.58794,0.4871 -1.67898,1.01767 -1.92297,1.79758 -0.0328,0.10472 -0.008,0.21931 -0.0122,0.32898 0.0445,0.09 0.0605,0.20106 0.13341,0.27006 0.59936,0.56684 2.2539,-0.90289 2.39821,-1.01777 0.13508,-0.10755 0.20926,-0.27474 0.31389,-0.41209 0.35915,-0.56764 0.4361,-1.30633 -0.39068,-1.34133 -0.0886,0.0282 -0.1772,0.0564 -0.2658,0.0845 0,0 -0.88285,0.69303 -0.88285,0.69303 v 0 c 0.0806,-0.0378 0.16109,-0.0756 0.24163,-0.11338 0.78475,-0.0994 0.58799,0.66019 0.27532,1.1148 -0.62933,0.77097 -0.26476,0.19246 0.25305,0.16978 0.14848,-0.007 -0.25422,0.15558 -0.38984,0.21638 -0.14751,0.0661 -0.40915,0.18261 -0.57725,0.0512 -0.0636,-0.0497 -0.0712,-0.14481 -0.10679,-0.2172 0.10564,-0.97679 1.29315,-1.48159 1.97599,-2.03274 0,0 -1.04307,0.40812 -1.04307,0.40812 z"
       id="path1857-0-2"
       style="fill:#000000;stroke:none;stroke-width:0.542396" />
    <path
       d="m 252.47059,468.53146 c -0.4361,0.50131 -1.13244,1.40116 -0.19002,1.77261 1.2703,-0.2462 2.06535,-1.28416 1.73483,-2.49116 -0.33438,-0.50363 -0.7399,-0.49411 -1.25521,-0.29813 0,0 -0.87681,0.69426 -0.87681,0.69426 v 0 c 0.44373,-0.2232 0.82033,-0.32586 1.14784,0.13801 0.10184,0.3951 0.10089,0.71152 -0.0624,1.10001 -0.0579,0.13784 -0.36408,0.36353 -0.21737,0.39235 0.25089,0.0492 0.46776,-0.20744 0.70754,-0.29615 0.0881,-0.0326 -0.16765,0.0849 -0.25148,0.12737 -0.89526,-0.16338 -0.0135,-1.24365 0.29812,-1.5679 0,0 -1.03507,0.42873 -1.03507,0.42873 z"
       id="path1859-32-6"
       style="fill:#000000;stroke:none;stroke-width:0.542396" />
    <path
       d="m 253.7335,477.17241 c -0.45179,-0.0678 -0.87285,0.0368 -1.25525,0.28369 -0.67012,0.43259 -1.50465,0.5774 -0.94511,1.17496 0.82987,0.42307 1.58033,-0.26337 2.21441,-0.79761 0.17767,-0.1497 0.28747,-0.58957 0.35321,-0.79574 0.0704,-0.48844 -0.0848,-0.79663 -0.50877,-1.02057 0,0 -0.93621,0.61976 -0.93621,0.61976 v 0 c 0.4041,0.15965 0.50853,0.44622 0.43408,0.87492 -0.0452,0.12547 -0.0761,0.25707 -0.13569,0.37637 -0.0659,0.13182 -0.3819,0.33859 -0.23844,0.37229 0.23447,0.0551 0.44757,-0.17822 0.66991,-0.27085 0.31772,-0.1324 -0.91855,0.40204 -0.89465,0.0517 -0.46561,-0.37645 0.7086,-0.48265 -0.88196,0.11615 -0.12485,0.047 0.22263,-0.1492 0.34408,-0.20441 0.43992,-0.20003 0.40254,-0.15002 0.86475,-0.13505 0,0 0.91564,-0.64561 0.91564,-0.64561 z"
       id="path1861-174-7"
       style="fill:#000000;stroke:none;stroke-width:0.542396" />
    <text
       id="text835-6-2-2-5-8-9-9-2-7-2"
       y="599.23175"
       x="-213.66167"
       style="font-style:normal;font-weight:normal;font-size:10.5833px;line-height:1.25;font-family:sans-serif;fill:#000000;fill-opacity:1;stroke:none;stroke-width:0.264583"
       xml:space="preserve"><tspan
         style="font-style:normal;font-variant:normal;font-weight:normal;font-stretch:normal;font-family:'Segoe Script';-inkscape-font-specification:'Segoe Script';stroke-width:0.264583"
         y="599.23175"
         x="-213.66167"
         id="tspan833-3-4-7-54-6-5-6-8-6-6"
         sodipodi:role="line">From the recursive solution it is clear how to build the DP matrix:</tspan><tspan
         id="tspan1953"
         style="font-style:normal;font-variant:normal;font-weight:normal;font-stretch:normal;font-family:'Segoe Script';-inkscape-font-specification:'Segoe Script';stroke-width:0.264583"
         y="612.94067"
         x="-213.66167"
         sodipodi:role="line"></tspan><tspan
         id="tspan1961"
         style="font-style:normal;font-variant:normal;font-weight:normal;font-stretch:normal;font-family:'Segoe Script';-inkscape-font-specification:'Segoe Script';stroke-width:0.264583"
         y="626.6496"
         x="-213.66167"
         sodipodi:role="line">If chars are different:</tspan><tspan
         id="tspan1959"
         style="font-style:normal;font-variant:normal;font-weight:normal;font-stretch:normal;font-family:'Segoe Script';-inkscape-font-specification:'Segoe Script';stroke-width:0.264583"
         y="640.35852"
         x="-213.66167"
         sodipodi:role="line">    DP(i, j) = 1 + min(DP(i,j-1), DP(i-1,j), DP(i-1,j-1))</tspan><tspan
         id="tspan1955"
         style="font-style:normal;font-variant:normal;font-weight:normal;font-stretch:normal;font-family:'Segoe Script';-inkscape-font-specification:'Segoe Script';stroke-width:0.264583"
         y="654.06744"
         x="-213.66167"
         sodipodi:role="line">otherwise:</tspan><tspan
         id="tspan1957"
         style="font-style:normal;font-variant:normal;font-weight:normal;font-stretch:normal;font-family:'Segoe Script';-inkscape-font-specification:'Segoe Script';stroke-width:0.264583"
         y="667.77637"
         x="-213.66167"
         sodipodi:role="line">    DP(i,j) = DP(i-1,j-1)</tspan></text>
    <text
       id="text835-6-2-2-5-8-9-9-2-2-7-0-0-2-6-0-5"
       y="319.86713"
       x="101.90852"
       style="font-style:normal;font-weight:normal;font-size:10.5833px;line-height:1.25;font-family:sans-serif;fill:#000000;fill-opacity:1;stroke:none;stroke-width:0.264583"
       xml:space="preserve"><tspan
         sodipodi:role="line"
         style="font-style:normal;font-variant:normal;font-weight:normal;font-stretch:normal;font-family:'Segoe Script';-inkscape-font-specification:'Segoe Script';fill:#008080;stroke-width:0.264583"
         y="319.86713"
         x="101.90852"
         id="tspan833-3-4-7-54-6-5-6-8-4-0-8-7-8-9-7-9">?</tspan></text>
    <text
       xml:space="preserve"
       style="font-style:normal;font-weight:normal;font-size:10.5833px;line-height:1.25;font-family:sans-serif;fill:#000000;fill-opacity:1;stroke:none;stroke-width:0.264583"
       x="-159.63181"
       y="321.69427"
       id="text835-6-2-2-5-8-9-9-2-2-7-0-0-2-6-0-5-7"><tspan
         id="tspan833-3-4-7-54-6-5-6-8-4-0-8-7-8-9-7-9-4"
         x="-159.63181"
         y="321.69427"
         style="font-style:normal;font-variant:normal;font-weight:normal;font-stretch:normal;font-family:'Segoe Script';-inkscape-font-specification:'Segoe Script';fill:#008080;stroke-width:0.264583"
         sodipodi:role="line">?</tspan></text>
    <text
       id="text835-6-2-2-5-8-9-9-2-7-1"
       y="725.47583"
       x="-172.46227"
       style="font-style:normal;font-weight:normal;font-size:10.5833px;line-height:1.25;font-family:sans-serif;fill:#000000;fill-opacity:1;stroke:none;stroke-width:0.264583"
       xml:space="preserve"><tspan
         style="font-style:normal;font-variant:normal;font-weight:normal;font-stretch:normal;font-family:'Segoe Script';-inkscape-font-specification:'Segoe Script';stroke-width:0.264583"
         y="725.47583"
         x="-172.46227"
         id="tspan833-3-4-7-54-6-5-6-8-6-63"
         sodipodi:role="line">-   h   o   l   a   s</tspan></text>
    <text
       xml:space="preserve"
       style="font-style:normal;font-weight:normal;font-size:10.5833px;line-height:1.25;font-family:sans-serif;fill:#000000;fill-opacity:1;stroke:none;stroke-width:0.264583"
       x="-186.73964"
       y="739.03162"
       id="text835-6-2-2-5-8-9-9-2-7-1-4"><tspan
         sodipodi:role="line"
         id="tspan833-3-4-7-54-6-5-6-8-6-63-0"
         x="-186.73964"
         y="739.03162"
         style="font-style:normal;font-variant:normal;font-weight:normal;font-stretch:normal;font-family:'Segoe Script';-inkscape-font-specification:'Segoe Script';stroke-width:0.264583">-</tspan><tspan
         id="tspan2039"
         sodipodi:role="line"
         x="-186.73964"
         y="752.74054"
         style="font-style:normal;font-variant:normal;font-weight:normal;font-stretch:normal;font-family:'Segoe Script';-inkscape-font-specification:'Segoe Script';stroke-width:0.264583">g</tspan><tspan
         id="tspan2041"
         sodipodi:role="line"
         x="-186.73964"
         y="766.44946"
         style="font-style:normal;font-variant:normal;font-weight:normal;font-stretch:normal;font-family:'Segoe Script';-inkscape-font-specification:'Segoe Script';stroke-width:0.264583">o</tspan><tspan
         id="tspan2043"
         sodipodi:role="line"
         x="-186.73964"
         y="780.15839"
         style="font-style:normal;font-variant:normal;font-weight:normal;font-stretch:normal;font-family:'Segoe Script';-inkscape-font-specification:'Segoe Script';stroke-width:0.264583">a</tspan><tspan
         id="tspan2045"
         sodipodi:role="line"
         x="-186.73964"
         y="793.86731"
         style="font-style:normal;font-variant:normal;font-weight:normal;font-stretch:normal;font-family:'Segoe Script';-inkscape-font-specification:'Segoe Script';stroke-width:0.264583">l</tspan></text>
    <rect
       y="729.11609"
       x="-175.38094"
       height="69.547623"
       width="108.85714"
       id="rect2047"
       style="fill:none;stroke:#000000;stroke-width:0.542396;stroke-opacity:1" />
    <path
       id="path2051"
       d="M -174.625,743.10117 H -67.27976"
       style="fill:none;stroke:#000000;stroke-width:0.264583px;stroke-linecap:butt;stroke-linejoin:miter;stroke-opacity:1" />
    <path
       id="path2053"
       d="M -175.38095,756.70832 H -67.27976"
       style="fill:none;stroke:#000000;stroke-width:0.264583px;stroke-linecap:butt;stroke-linejoin:miter;stroke-opacity:1" />
    <path
       id="path2055"
       d="M -176.1369,770.31547 H -67.27976"
       style="fill:none;stroke:#000000;stroke-width:0.264583px;stroke-linecap:butt;stroke-linejoin:miter;stroke-opacity:1" />
    <path
       id="path2059"
       d="M -175.38095,785.05655 H -66.523808"
       style="fill:none;stroke:#000000;stroke-width:0.264583px;stroke-linecap:butt;stroke-linejoin:miter;stroke-opacity:1" />
    <path
       id="path2061"
       d="m -160.2619,729.49405 v 68.41368"
       style="fill:none;stroke:#000000;stroke-width:0.264583px;stroke-linecap:butt;stroke-linejoin:miter;stroke-opacity:1" />
    <path
       id="path2063"
       d="m -141.36309,729.11607 v 68.79166"
       style="fill:none;stroke:#000000;stroke-width:0.264583px;stroke-linecap:butt;stroke-linejoin:miter;stroke-opacity:1" />
    <path
       id="path2065"
       d="m -123.22024,729.49405 v 68.41368"
       style="fill:none;stroke:#000000;stroke-width:0.264583px;stroke-linecap:butt;stroke-linejoin:miter;stroke-opacity:1" />
    <path
       id="path2067"
       d="m -104.6994,729.49405 v 68.0357"
       style="fill:none;stroke:#000000;stroke-width:0.264583px;stroke-linecap:butt;stroke-linejoin:miter;stroke-opacity:1" />
    <path
       id="path2069"
       d="m -86.556547,729.49405 v 68.41368"
       style="fill:none;stroke:#000000;stroke-width:0.264583px;stroke-linecap:butt;stroke-linejoin:miter;stroke-opacity:1" />
    <text
       xml:space="preserve"
       style="font-style:normal;font-weight:normal;font-size:10.5833px;line-height:1.25;font-family:sans-serif;fill:#000000;fill-opacity:1;stroke:none;stroke-width:0.264583"
       x="-171.99857"
       y="739.78766"
       id="text835-6-2-2-5-8-9-9-2-7-1-6"><tspan
         sodipodi:role="line"
         id="tspan833-3-4-7-54-6-5-6-8-6-63-6"
         x="-171.99857"
         y="739.78766"
         style="font-style:normal;font-variant:normal;font-weight:normal;font-stretch:normal;font-family:'Segoe Script';-inkscape-font-specification:'Segoe Script';stroke-width:0.264583">0   1   2  3  4   5</tspan></text>
    <text
       id="text835-6-2-2-5-8-9-9-2-7-4"
       y="729.63354"
       x="-2.3729782"
       style="font-style:normal;font-weight:normal;font-size:10.5833px;line-height:1.25;font-family:sans-serif;fill:#000000;fill-opacity:1;stroke:none;stroke-width:0.264583"
       xml:space="preserve"><tspan
         style="font-style:normal;font-variant:normal;font-weight:normal;font-stretch:normal;font-family:'Segoe Script';-inkscape-font-specification:'Segoe Script';stroke-width:0.264583"
         y="729.63354"
         x="-2.3729782"
         id="tspan833-3-4-7-54-6-5-6-8-6-9"
         sodipodi:role="line">ED(0, x) -&gt; x</tspan></text>
    <text
       xml:space="preserve"
       style="font-style:normal;font-weight:normal;font-size:10.5833px;line-height:1.25;font-family:sans-serif;fill:#000000;fill-opacity:1;stroke:none;stroke-width:0.264583"
       x="-2.9517097"
       y="744.37463"
       id="text835-6-2-2-5-8-9-9-2-7-4-5"><tspan
         sodipodi:role="line"
         id="tspan833-3-4-7-54-6-5-6-8-6-9-6"
         x="-2.9517097"
         y="744.37463"
         style="font-style:normal;font-variant:normal;font-weight:normal;font-stretch:normal;font-family:'Segoe Script';-inkscape-font-specification:'Segoe Script';stroke-width:0.264583">ED(x, 0) -&gt; x</tspan></text>
    <text
       id="text835-6-2-2-5-8-9-9-2-7-4-5-9"
       y="760.24963"
       x="-4.280529"
       style="font-style:normal;font-weight:normal;font-size:10.5833px;line-height:1.25;font-family:sans-serif;fill:#000000;fill-opacity:1;stroke:none;stroke-width:0.264583"
       xml:space="preserve"><tspan
         style="font-style:normal;font-variant:normal;font-weight:normal;font-stretch:normal;font-family:'Segoe Script';-inkscape-font-specification:'Segoe Script';stroke-width:0.264583"
         y="760.24963"
         x="-4.280529"
         id="tspan833-3-4-7-54-6-5-6-8-6-9-6-8"
         sodipodi:role="line">ED(0, 0) -&gt; 0</tspan></text>
    <text
       id="text835-6-2-2-5-8-9-9-2-7-10"
       y="767.80914"
       x="-242.38785"
       style="font-style:normal;font-weight:normal;font-size:10.5833px;line-height:1.25;font-family:sans-serif;fill:#000000;fill-opacity:1;stroke:none;stroke-width:0.264583"
       xml:space="preserve"><tspan
         style="font-style:normal;font-variant:normal;font-weight:normal;font-stretch:normal;font-family:'Segoe Script';-inkscape-font-specification:'Segoe Script';stroke-width:0.264583"
         y="767.80914"
         x="-242.38785"
         id="tspan833-3-4-7-54-6-5-6-8-6-0"
         sodipodi:role="line">DP =</tspan></text>
    <text
       id="text835-6-2-2-5-8-9-9-2-7-1-6-8"
       y="752.93481"
       x="-172.72055"
       style="font-style:normal;font-weight:normal;font-size:10.5833px;line-height:1.25;font-family:sans-serif;fill:#000000;fill-opacity:1;stroke:none;stroke-width:0.264583"
       xml:space="preserve"><tspan
         style="font-style:normal;font-variant:normal;font-weight:normal;font-stretch:normal;font-family:'Segoe Script';-inkscape-font-specification:'Segoe Script';stroke-width:0.264583"
         y="752.93481"
         x="-172.72055"
         id="tspan833-3-4-7-54-6-5-6-8-6-63-6-2"
         sodipodi:role="line">1   1   2  3  4   5</tspan></text>
    <text
       xml:space="preserve"
       style="font-style:normal;font-weight:normal;font-size:10.5833px;line-height:1.25;font-family:sans-serif;fill:#000000;fill-opacity:1;stroke:none;stroke-width:0.264583"
       x="-172.27725"
       y="766.91998"
       id="text835-6-2-2-5-8-9-9-2-7-1-6-8-2"><tspan
         sodipodi:role="line"
         id="tspan833-3-4-7-54-6-5-6-8-6-63-6-2-7"
         x="-172.27725"
         y="766.91998"
         style="font-style:normal;font-variant:normal;font-weight:normal;font-stretch:normal;font-family:'Segoe Script';-inkscape-font-specification:'Segoe Script';stroke-width:0.264583">2   2   1  2  3   4</tspan></text>
    <text
       id="text835-6-2-2-5-8-9-9-2-7-1-6-8-2-6"
       y="781.66101"
       x="-172.30199"
       style="font-style:normal;font-weight:normal;font-size:10.5833px;line-height:1.25;font-family:sans-serif;fill:#000000;fill-opacity:1;stroke:none;stroke-width:0.264583"
       xml:space="preserve"><tspan
         style="font-style:normal;font-variant:normal;font-weight:normal;font-stretch:normal;font-family:'Segoe Script';-inkscape-font-specification:'Segoe Script';stroke-width:0.264583"
         y="781.66101"
         x="-172.30199"
         id="tspan833-3-4-7-54-6-5-6-8-6-63-6-2-7-1"
         sodipodi:role="line">3   3   2  2  2   3</tspan></text>
    <text
       xml:space="preserve"
       style="font-style:normal;font-weight:normal;font-size:10.5833px;line-height:1.25;font-family:sans-serif;fill:#000000;fill-opacity:1;stroke:none;stroke-width:0.264583"
       x="-172.01187"
       y="795.0899"
       id="text835-6-2-2-5-8-9-9-2-7-1-6-8-2-6-3"><tspan
         sodipodi:role="line"
         id="tspan833-3-4-7-54-6-5-6-8-6-63-6-2-7-1-1"
         x="-172.01187"
         y="795.0899"
         style="font-style:normal;font-variant:normal;font-weight:normal;font-stretch:normal;font-family:'Segoe Script';-inkscape-font-specification:'Segoe Script';stroke-width:0.264583">4   4   3  2  3   <tspan
   id="tspan2255"
   style="fill:#008000">3</tspan></tspan></text>
    <text
       xml:space="preserve"
       style="font-style:normal;font-weight:normal;font-size:10.5833px;line-height:1.25;font-family:sans-serif;fill:#000000;fill-opacity:1;stroke:none;stroke-width:0.264583"
       x="-216.88623"
       y="822.99371"
       id="text835-6-2-2-5-8-9-9-2-7-4-9"><tspan
         sodipodi:role="line"
         id="tspan833-3-4-7-54-6-5-6-8-6-9-4"
         x="-216.88623"
         y="822.99371"
         style="font-style:normal;font-variant:normal;font-weight:normal;font-stretch:normal;font-family:'Segoe Script';-inkscape-font-specification:'Segoe Script';stroke-width:0.264583">DP[4,5] is the solution to ED(4,5).</tspan><tspan
         id="tspan2261"
         sodipodi:role="line"
         x="-216.88623"
         y="836.70264"
         style="font-style:normal;font-variant:normal;font-weight:normal;font-stretch:normal;font-family:'Segoe Script';-inkscape-font-specification:'Segoe Script';stroke-width:0.264583" /><tspan
         id="tspan2257"
         sodipodi:role="line"
         x="-216.88623"
         y="850.41156"
         style="font-style:normal;font-variant:normal;font-weight:normal;font-stretch:normal;font-family:'Segoe Script';-inkscape-font-specification:'Segoe Script';stroke-width:0.264583">Thus, we need a minimum of 3 operations</tspan><tspan
         id="tspan2259"
         sodipodi:role="line"
         x="-216.88623"
         y="864.12048"
         style="font-style:normal;font-variant:normal;font-weight:normal;font-stretch:normal;font-family:'Segoe Script';-inkscape-font-specification:'Segoe Script';stroke-width:0.264583">to transform &quot;goal&quot; into &quot;holas&quot;</tspan></text>
  </g>
</svg>
